<svg width="130" height="130" viewBox="0 0 130 130" fill="none" xmlns="http://www.w3.org/2000/svg">
<path d="M71.0149 9.67123C70.8799 9.66026 70.7685 9.61725 70.6806 9.54218C70.5875 9.46669 70.4786 9.36118 70.3539 9.22564C70.2291 9.0901 70.0912 8.92474 69.94 8.72957C69.8837 8.65184 69.8578 8.58443 69.8625 8.52733C69.8672 8.47023 69.9037 8.40787 69.972 8.34026C70.3237 8.00304 70.639 7.75953 70.9178 7.60973C70.9835 7.57326 71.0735 7.55966 71.1877 7.56894C71.5407 7.5976 71.8553 7.4899 72.1314 7.24582C72.4127 7.00217 72.5725 6.58404 72.6107 5.99144C72.658 5.35255 72.5364 4.89328 72.2458 4.61364C71.9604 4.33442 71.5504 4.17309 71.0157 4.12967L70.6419 4.09932C70.2993 4.0715 70.0597 4.1252 69.9232 4.26043C69.7867 4.39565 69.7039 4.63976 69.6749 4.99273L69.0292 12.8491C69.0164 13.0048 68.9737 13.111 68.9011 13.1679C68.8341 13.2199 68.7227 13.2396 68.567 13.2269L66.9084 13.0923C66.7526 13.0796 66.6434 13.042 66.5806 12.9794C66.5234 12.9121 66.5012 12.8005 66.514 12.6448L67.2263 3.97872C67.2689 3.45964 67.3494 3.05336 67.4675 2.75988C67.5914 2.46163 67.7962 2.25879 68.082 2.15136C68.3734 2.03916 68.7864 2.00477 69.3211 2.04819L71.1744 2.19869C72.6643 2.31967 73.7433 2.70253 74.4115 3.34727C75.0801 3.98682 75.3649 4.90873 75.266 6.113C75.1917 7.0162 74.9417 7.73791 74.5158 8.27813C74.0951 8.81877 73.5725 9.1996 72.9482 9.42063C72.329 9.64207 71.6846 9.7256 71.0149 9.67123Z" fill="#7A5F8A"/>
<path d="M78.3605 15.0205C77.0881 14.6987 76.1672 14.106 75.598 13.2422C75.0287 12.3784 74.9152 11.2779 75.2574 9.9408C75.6086 8.56836 76.2545 7.6411 77.195 7.15903C78.1419 6.67319 79.2592 6.59305 80.5468 6.91861C81.7889 7.23267 82.6978 7.81972 83.2734 8.67975C83.8503 9.53474 83.9721 10.6131 83.639 11.9149C83.2916 13.2722 82.6533 14.2121 81.7239 14.7346C80.7945 15.2571 79.6734 15.3524 78.3605 15.0205ZM78.905 13.208C79.4604 13.3485 79.9234 13.2829 80.294 13.0112C80.6659 12.7346 80.959 12.1775 81.1733 11.3399C81.3773 10.5426 81.3768 9.94619 81.1716 9.55049C80.9728 9.15102 80.5931 8.88043 80.0326 8.73872C79.4923 8.60211 79.0204 8.67083 78.617 8.94488C78.2199 9.21516 77.9206 9.74386 77.7192 10.531C77.5087 11.3534 77.5073 11.9682 77.7149 12.3753C77.9276 12.7836 78.3243 13.0612 78.905 13.208Z" fill="#7A5F8A"/>
<path d="M88.02 11.2495L88.0489 11.2614C88.8294 10.4125 89.6886 10.1828 90.6266 10.5723C90.7468 10.6222 90.8424 10.6704 90.9133 10.7167C90.9862 10.7583 91.0351 10.7899 91.06 10.8114C91.122 10.8654 91.1349 10.9356 91.0986 11.022L90.3691 12.7578C90.3065 12.9066 90.2028 12.9115 90.0579 12.7724C90.0102 12.7244 89.9361 12.6654 89.8356 12.5955C89.7419 12.5227 89.5988 12.4464 89.4064 12.3665C88.911 12.1608 88.4471 12.1825 88.0147 12.4315C87.5844 12.6758 87.238 13.11 86.9757 13.7342L85.656 16.8744C85.5954 17.0185 85.5218 17.1063 85.435 17.138C85.3551 17.1668 85.243 17.1513 85.0987 17.0914L83.6124 16.4742C83.4681 16.4143 83.3757 16.3449 83.3354 16.2661C83.3019 16.1846 83.3154 16.0717 83.3759 15.9277L85.9125 9.89219C85.961 9.77696 86.0224 9.69812 86.0967 9.65567C86.2542 9.56317 86.432 9.47626 86.63 9.39494C86.8328 9.31561 87.0709 9.23967 87.3444 9.1671C87.395 9.15427 87.4415 9.15105 87.484 9.15742C87.5265 9.1638 87.5622 9.17298 87.5911 9.18496C87.6584 9.21292 87.7157 9.26489 87.7628 9.34087C88.0309 9.81875 88.1979 10.2011 88.2638 10.4879C88.2829 10.5635 88.2763 10.6397 88.244 10.7165L88.02 11.2495Z" fill="#7A5F8A"/>
<path d="M91.5572 20.5267C90.0388 19.6779 89.7245 18.467 90.6145 16.894L92.4188 13.705L91.6482 13.2743C91.5118 13.198 91.4317 13.1174 91.408 13.0326C91.3913 12.9457 91.4214 12.8342 91.4984 12.6982L91.9716 11.8619C92.0485 11.7259 92.1274 11.6447 92.2082 11.6182C92.2961 11.5898 92.4082 11.6137 92.5446 11.6899L93.3152 12.1207L93.9346 11.026C93.9961 10.9172 94.0663 10.846 94.1451 10.8125C94.4771 10.6699 94.9093 10.5565 95.4417 10.4722C95.531 10.4625 95.6007 10.4716 95.6507 10.4995C95.7052 10.53 95.7469 10.5832 95.7759 10.659C95.8867 10.9179 95.9709 11.1499 96.0283 11.355C96.0903 11.5627 96.1332 11.7567 96.1568 11.937C96.169 12.0214 96.1442 12.1179 96.0827 12.2267L95.4633 13.3215L96.6703 13.9962C96.8067 14.0724 96.8832 14.154 96.8999 14.2409C96.9237 14.3258 96.8971 14.4362 96.8202 14.5722L96.347 15.4086C96.27 15.5446 96.1876 15.6268 96.0997 15.6552C96.0189 15.6816 95.9103 15.6567 95.7739 15.5805L94.5669 14.9058L92.9742 17.7208C92.5638 18.4461 92.6223 18.9562 93.1497 19.251C93.2315 19.2967 93.3104 19.3318 93.3863 19.3563C93.4647 19.3763 93.5341 19.3912 93.5944 19.4011C93.7104 19.4182 93.784 19.4414 93.8152 19.4708C93.851 19.5028 93.8592 19.5729 93.8397 19.6814L93.6389 20.9564C93.6157 21.0926 93.5423 21.159 93.4186 21.1555C93.3324 21.1491 93.1332 21.1153 92.8207 21.054C92.5103 20.9998 92.0891 20.824 91.5572 20.5267Z" fill="#7A5F8A"/>
<path d="M96.649 23.1973C96.5581 23.3243 96.4667 23.3937 96.3751 23.4054C96.2907 23.4159 96.1847 23.376 96.0572 23.2858L94.7434 22.3562C94.6159 22.2659 94.5411 22.178 94.5192 22.0923C94.5046 22.0054 94.5427 21.8984 94.6337 21.7714L97.9907 17.0838L97.2382 16.5514C97.1106 16.4611 97.0395 16.3725 97.0249 16.2856C97.0175 16.1975 97.0594 16.0899 97.1503 15.9629L97.7098 15.1816C97.8008 15.0546 97.8879 14.9822 97.971 14.9645C98.0615 14.9455 98.1705 14.9812 98.298 15.0714L99.0506 15.6039L99.6283 14.7972C99.9952 14.2849 100.413 13.9167 100.881 13.6927C101.353 13.4717 101.834 13.385 102.326 13.4327C102.821 13.4833 103.283 13.6606 103.713 13.9644C103.913 14.1058 104.057 14.2211 104.147 14.3102C104.242 14.4024 104.302 14.4834 104.329 14.5534C104.428 14.7639 104.521 15.1169 104.608 15.6124C104.619 15.6963 104.606 15.7637 104.569 15.8145C104.53 15.8695 104.448 15.9075 104.324 15.9283C104.103 15.9693 103.901 15.9958 103.72 16.0077C103.541 16.0154 103.399 16.017 103.293 16.0124C103.202 16.0054 103.128 15.9881 103.071 15.9605C103.021 15.9316 102.954 15.8871 102.869 15.8269C102.452 15.5321 102.017 15.7023 101.562 16.3375L101.066 17.0298L102.22 17.8466C102.348 17.9368 102.415 18.026 102.423 18.1141C102.437 18.2011 102.399 18.308 102.308 18.4351L101.749 19.2163C101.658 19.3434 101.567 19.4164 101.476 19.4353C101.393 19.453 101.288 19.4168 101.16 19.3265L100.006 18.5098L96.649 23.1973Z" fill="#7A5F8A"/>
<path d="M100.844 27.5737C99.885 26.6775 99.3656 25.7145 99.2858 24.6848C99.2061 23.655 99.6404 22.6387 100.589 21.636C101.562 20.6068 102.578 20.109 103.636 20.1425C104.701 20.1758 105.719 20.6458 106.69 21.5526C107.626 22.4275 108.137 23.3797 108.225 24.4092C108.315 25.435 107.899 26.436 106.976 27.4122C106.013 28.4301 104.998 28.9426 103.93 28.9498C102.862 28.957 101.833 28.4983 100.844 27.5737ZM102.2 26.2535C102.619 26.6447 103.056 26.8112 103.513 26.753C103.973 26.6911 104.5 26.3461 105.094 25.718C105.66 25.1201 105.948 24.5988 105.961 24.1539C105.98 23.7088 105.779 23.2889 105.356 22.8942C104.949 22.5137 104.502 22.3456 104.016 22.39C103.537 22.4341 103.018 22.7513 102.46 23.3416C101.876 23.9584 101.577 24.4948 101.561 24.9507C101.55 25.4103 101.763 25.8445 102.2 26.2535Z" fill="#7A5F8A"/>
<path d="M104.962 31.9309C104.856 31.8766 104.788 31.8314 104.758 31.7953C104.728 31.7593 104.71 31.7097 104.705 31.6465C104.693 31.5015 104.762 31.2664 104.911 30.9413C105.068 30.6168 105.408 30.2397 105.931 29.8098L112.921 24.0664C113.018 23.987 113.109 23.9459 113.195 23.9429C113.556 23.9292 114 23.9788 114.527 24.0915C114.614 24.1145 114.676 24.148 114.713 24.1921C114.756 24.2441 114.777 24.3107 114.777 24.3918C114.787 24.6732 114.783 24.9198 114.763 25.1318C114.746 25.3479 114.716 25.5442 114.673 25.7209C114.654 25.8039 114.596 25.8851 114.5 25.9645L107.878 31.4054C107.613 31.6236 107.404 31.8325 107.251 32.0319C107.103 32.2281 106.997 32.4025 106.934 32.5551C106.858 32.7323 106.742 32.784 106.586 32.7101L104.962 31.9309Z" fill="#7A5F8A"/>
<path d="M115.424 28.0133C115.48 27.9746 115.541 27.9575 115.608 27.9618C115.674 27.9661 115.761 27.9722 115.869 27.9799C116.089 28.004 116.33 28.0427 116.591 28.0962C116.856 28.1466 117.116 28.2037 117.371 28.2674C117.524 28.313 117.618 28.3614 117.654 28.4125C117.69 28.4636 117.705 28.5707 117.699 28.7336C117.643 29.2868 117.559 29.7829 117.448 30.2219C117.422 30.3219 117.398 30.4053 117.375 30.4721C117.36 30.5402 117.324 30.5935 117.268 30.6322C117.213 30.6709 117.15 30.6859 117.08 30.6773C117.014 30.673 116.923 30.6663 116.808 30.6573C116.595 30.6345 116.357 30.6 116.095 30.5538C115.838 30.5046 115.583 30.4467 115.333 30.3801C115.239 30.3562 115.172 30.3331 115.131 30.311C115.094 30.2858 115.065 30.2584 115.044 30.2285C115.023 30.1987 115.007 30.1623 114.996 30.1193C114.992 30.0776 114.992 30.0049 114.995 29.901C115.012 29.6355 115.043 29.3762 115.088 29.123C115.136 28.8669 115.19 28.6301 115.247 28.4127C115.276 28.3098 115.298 28.2279 115.313 28.167C115.331 28.1032 115.368 28.052 115.424 28.0133ZM108.671 36.1574C108.542 36.2466 108.433 36.2814 108.343 36.2618C108.26 36.2434 108.173 36.1703 108.083 36.0426L107.157 34.7267C107.067 34.599 107.026 34.4911 107.034 34.403C107.049 34.3162 107.121 34.2282 107.249 34.1389L113.136 30.0428C113.265 29.9536 113.37 29.9182 113.453 29.9366C113.543 29.9562 113.634 30.0299 113.724 30.1577L114.65 31.4735C114.74 31.6013 114.778 31.7085 114.762 31.7953C114.754 31.8834 114.686 31.9721 114.558 32.0613L108.671 36.1574Z" fill="#7A5F8A"/>
<path d="M111.079 41.1922C110.464 40.0324 110.287 38.9525 110.547 37.9522C110.806 36.952 111.548 36.1318 112.77 35.4916C114.025 34.8345 115.147 34.6938 116.136 35.0696C117.132 35.4476 117.941 36.2233 118.563 37.3968C119.163 38.5289 119.337 39.5962 119.084 40.5986C118.836 41.5986 118.117 42.4103 116.926 43.0335C115.685 43.6834 114.559 43.8381 113.547 43.4977C112.536 43.1572 111.713 42.3887 111.079 41.1922ZM112.79 40.3842C113.059 40.8905 113.418 41.1903 113.868 41.2837C114.323 41.3747 114.934 41.2197 115.7 40.8187C116.429 40.437 116.871 40.0377 117.028 39.6207C117.191 39.206 117.137 38.7432 116.866 38.2324C116.606 37.74 116.238 37.4356 115.764 37.3194C115.297 37.2054 114.703 37.3368 113.983 37.7137C113.231 38.1075 112.774 38.5176 112.611 38.9439C112.45 39.3749 112.51 39.855 112.79 40.3842Z" fill="#7A5F8A"/>
<path d="M115.253 51.458C115.12 50.9383 115.085 50.5256 115.146 50.2199C115.209 49.9193 115.378 49.6835 115.651 49.5125C115.926 49.3465 116.311 49.2011 116.806 49.0763L124.426 47.1541C124.573 47.1171 124.69 47.1144 124.779 47.1457C125.17 47.2887 125.602 47.5181 126.075 47.8339C126.155 47.8943 126.202 47.9523 126.217 48.0078C126.232 48.0683 126.218 48.1391 126.174 48.22C126.039 48.4904 125.902 48.7236 125.764 48.9196C125.631 49.1143 125.498 49.2875 125.365 49.4393C125.297 49.5102 125.192 49.5634 125.051 49.5991L118.331 51.2939C117.993 51.3792 117.766 51.5009 117.651 51.659C117.535 51.8171 117.52 52.0626 117.605 52.3957L118.206 54.7177C118.237 54.8388 118.24 54.9347 118.215 55.0055C118.157 55.1596 118.083 55.3232 117.993 55.4964C117.903 55.6695 117.79 55.8566 117.653 56.0577C117.6 56.1247 117.553 56.1633 117.513 56.1735C117.467 56.1849 117.411 56.1724 117.342 56.136C117.125 56.0241 116.936 55.9135 116.774 55.804C116.611 55.6946 116.468 55.5857 116.343 55.4774C116.285 55.417 116.242 55.3312 116.213 55.2202L115.253 51.458Z" fill="white"/>
<path d="M126.817 54.7757C126.884 54.7665 126.946 54.7791 127.003 54.8133C127.06 54.8475 127.135 54.8926 127.227 54.9484C127.412 55.0703 127.608 55.2144 127.815 55.3806C128.027 55.5461 128.232 55.7153 128.429 55.8881C128.544 55.9986 128.606 56.0847 128.615 56.1466C128.623 56.2086 128.588 56.3107 128.507 56.4531C128.204 56.9203 127.902 57.3242 127.602 57.6647C127.534 57.7424 127.474 57.8057 127.423 57.8547C127.378 57.9082 127.322 57.9395 127.255 57.9487C127.188 57.9578 127.125 57.9427 127.067 57.9033C127.01 57.8691 126.932 57.8219 126.835 57.7616C126.656 57.6441 126.46 57.5052 126.249 57.3448C126.042 57.1838 125.843 57.0165 125.651 56.8429C125.579 56.7792 125.53 56.7281 125.504 56.6896C125.482 56.6504 125.469 56.6128 125.464 56.5767C125.459 56.5406 125.462 56.5008 125.472 56.4574C125.487 56.4185 125.52 56.3535 125.571 56.2625C125.707 56.0336 125.854 55.8165 126.009 55.6113C126.17 55.4054 126.326 55.2186 126.476 55.0508C126.549 54.9725 126.606 54.9095 126.647 54.8619C126.693 54.8136 126.749 54.7849 126.817 54.7757ZM117.087 58.9582C116.932 58.9793 116.819 58.9606 116.747 58.902C116.682 58.8478 116.639 58.7433 116.617 58.5886L116.397 56.9943C116.376 56.8395 116.389 56.7247 116.436 56.6499C116.49 56.5796 116.594 56.5338 116.749 56.5127L123.855 55.5427C124.009 55.5216 124.119 55.5381 124.185 55.5923C124.256 55.6509 124.302 55.7576 124.324 55.9124L124.544 57.5066C124.565 57.6614 124.549 57.7739 124.496 57.8443C124.448 57.9191 124.347 57.9671 124.192 57.9882L117.087 58.9582Z" fill="white"/>
<path d="M121.979 68.4397L117.416 68.4888C117.26 68.4905 117.15 68.4578 117.087 68.3908C117.029 68.3289 116.999 68.2198 116.998 68.0636L116.98 66.4543C116.978 66.2981 117.006 66.1858 117.062 66.1175C117.124 66.0543 117.233 66.0219 117.389 66.0202L121.545 65.9755C122.113 65.9693 122.526 65.8451 122.784 65.6027C123.041 65.3604 123.168 65.0335 123.164 64.622C123.159 64.2106 123.067 63.8939 122.888 63.6718C122.708 63.455 122.482 63.2881 122.21 63.1713L117.359 63.2235C117.203 63.2252 117.093 63.1925 117.03 63.1255C116.972 63.0636 116.942 62.9545 116.94 62.7983L116.923 61.189C116.921 61.0328 116.948 60.9205 117.005 60.8522C117.067 60.789 117.176 60.7566 117.332 60.7549L123.879 60.6844C124.004 60.6831 124.1 60.7081 124.168 60.7594C124.315 60.8672 124.465 60.9958 124.618 61.1452C124.771 61.2998 124.934 61.4882 125.109 61.7103C125.161 61.7774 125.188 61.8423 125.189 61.9048C125.189 61.962 125.164 62.0274 125.113 62.1009C124.943 62.3215 124.781 62.5107 124.627 62.6687C124.472 62.8266 124.312 62.9663 124.147 63.0879L124.147 63.127C124.263 63.2143 124.397 63.3457 124.55 63.5211C124.708 63.6965 124.849 63.9424 124.972 64.2588C125.096 64.5804 125.16 64.9912 125.165 65.4912C125.171 65.9807 125.077 66.4479 124.884 66.8927C124.691 67.3375 124.361 67.7031 123.896 67.9893C123.43 68.2808 122.791 68.4309 121.979 68.4397Z" fill="white"/>
<path d="M116.821 72.166C116.667 72.1422 116.564 72.0921 116.512 72.0157C116.465 71.9453 116.454 71.8328 116.478 71.6784L116.726 70.0882C116.75 69.9339 116.795 69.8276 116.862 69.7694C116.934 69.7171 117.046 69.7029 117.201 69.7267L127.648 71.3344C127.772 71.3534 127.863 71.3938 127.922 71.4555C128.171 71.7152 128.428 72.0789 128.693 72.5464C128.733 72.6264 128.749 72.6947 128.74 72.7513C128.73 72.8182 128.694 72.8786 128.633 72.9324C128.428 73.1275 128.24 73.2882 128.067 73.4145C127.894 73.5459 127.727 73.6546 127.566 73.7405C127.491 73.7816 127.392 73.7927 127.268 73.7737L121.207 72.8409L121.192 72.9336C121.071 73.7158 121.127 74.2672 121.362 74.5879C121.601 74.9145 121.97 75.1163 122.469 75.1931L122.886 75.2573C123.01 75.2763 123.101 75.3167 123.16 75.3784C123.409 75.6381 123.666 76.0018 123.931 76.4693C123.971 76.5493 123.987 76.6176 123.978 76.6742C123.968 76.7411 123.932 76.8015 123.871 76.8553C123.666 77.0504 123.478 77.2112 123.305 77.3374C123.132 77.4688 122.965 77.5775 122.804 77.6634C122.729 77.7045 122.63 77.7156 122.506 77.6966L122.089 77.6324C121.796 77.5873 121.481 77.4782 121.144 77.3052C120.806 77.1373 120.525 76.8805 120.299 76.5349C120.074 76.1893 119.982 75.7325 120.023 75.1644L119.984 75.1585C119.726 75.5614 119.416 75.8957 119.053 76.1613C118.69 76.4269 118.312 76.6375 117.919 76.793C117.531 76.9494 117.163 77.0588 116.816 77.1213C116.473 77.1898 116.186 77.2246 115.954 77.2258C115.727 77.2277 115.628 77.1361 115.657 76.9508L115.973 74.9206C116 74.7456 116.121 74.6615 116.336 74.6683C116.584 74.6695 116.879 74.6333 117.223 74.5597C117.571 74.492 117.918 74.3794 118.264 74.2219C118.609 74.0695 118.907 73.8651 119.158 73.6085C119.413 73.358 119.569 73.0526 119.625 72.6923L119.639 72.5997L116.821 72.166Z" fill="white"/>
<path d="M107.848 87.1917C107.862 87.1236 107.882 87.0586 107.91 86.9967C108.165 86.426 108.538 85.9416 109.029 85.5435C109.516 85.1433 110.071 84.8818 110.697 84.7591C111.322 84.6363 111.965 84.7093 112.626 84.9782C113.339 83.8922 114.27 83.1928 115.419 82.8798C116.571 82.5738 117.9 82.7528 119.406 83.4168C121.231 84.2216 122.393 85.2663 122.892 86.5508C123.396 87.8373 123.293 89.2749 122.584 90.8634C121.92 92.3521 120.954 93.3349 119.686 93.8117C118.423 94.2907 116.928 94.1498 115.203 93.3891C113.678 92.7166 112.625 91.8763 112.042 90.8681C111.465 89.8621 111.303 88.749 111.556 87.5289C111.133 87.3651 110.795 87.3555 110.543 87.5002C110.283 87.6476 110.05 87.8693 109.844 88.1654C109.776 88.2664 109.711 88.3404 109.65 88.3875C109.587 88.4394 109.497 88.4821 109.379 88.5156C109.048 88.5802 108.687 88.6032 108.296 88.5845C108.189 88.5826 108.106 88.5691 108.049 88.5438C107.963 88.506 107.906 88.4238 107.877 88.2971C107.827 88.0644 107.807 87.8478 107.816 87.6471C107.819 87.4491 107.83 87.2973 107.848 87.1917ZM113.968 86.9186C113.585 87.7747 113.609 88.5452 114.04 89.2301C114.47 89.9149 115.176 90.4738 116.157 90.9067C117.296 91.4089 118.239 91.5911 118.985 91.4533C119.731 91.3155 120.297 90.8138 120.683 89.9481C121.445 88.2407 120.699 86.89 118.445 85.896C117.439 85.4526 116.536 85.2988 115.734 85.4347C114.934 85.5774 114.345 86.072 113.968 86.9186Z" fill="white"/>
<path d="M107.719 93.5957C108.786 92.0794 110.241 91.9621 112.084 93.2436L115.347 95.503C115.45 95.5744 115.514 95.6507 115.54 95.7319C115.649 96.0744 115.719 96.5132 115.75 97.0485C115.751 97.1379 115.735 97.206 115.702 97.2528C115.663 97.3082 115.604 97.3466 115.525 97.368C115.255 97.453 115.014 97.5141 114.804 97.5514C114.59 97.593 114.391 97.6168 114.209 97.623C114.123 97.6269 114.029 97.5932 113.926 97.5219L110.848 95.381C109.92 94.7357 109.198 94.7794 108.682 95.512C108.427 95.874 108.35 96.2513 108.449 96.644C108.553 97.0396 108.823 97.3891 109.259 97.6924L112.312 99.8154C112.415 99.8868 112.479 99.9631 112.504 100.044C112.614 100.387 112.684 100.826 112.715 101.361C112.715 101.45 112.699 101.518 112.666 101.565C112.627 101.621 112.569 101.659 112.49 101.68C112.22 101.765 111.979 101.827 111.768 101.864C111.554 101.905 111.356 101.929 111.173 101.935C111.088 101.939 110.994 101.906 110.891 101.834L105.324 97.9628C105.242 97.9063 105.191 97.8296 105.17 97.7326C105.154 97.6386 105.175 97.549 105.235 97.4638L105.91 96.5055C105.958 96.4373 106.01 96.3815 106.066 96.338C106.123 96.3018 106.196 96.2796 106.285 96.2714L107.077 96.2321L107.108 96.1874C107.058 96.0508 107.019 95.8655 106.993 95.6315C106.964 95.4018 106.998 95.1179 107.096 94.7799C107.191 94.4461 107.398 94.0514 107.719 93.5957Z" fill="white"/>
<path d="M112.308 105.306C112.358 105.351 112.389 105.407 112.399 105.472C112.41 105.538 112.423 105.624 112.44 105.73C112.465 105.949 112.481 106.191 112.487 106.455C112.496 106.723 112.498 106.988 112.493 107.249C112.482 107.408 112.456 107.51 112.414 107.556C112.371 107.602 112.27 107.641 112.109 107.671C111.553 107.738 111.048 107.767 110.593 107.757C110.489 107.754 110.402 107.75 110.331 107.742C110.261 107.742 110.201 107.719 110.15 107.674C110.1 107.628 110.071 107.571 110.064 107.502C110.054 107.436 110.04 107.347 110.023 107.233C109.998 107.021 109.979 106.783 109.966 106.519C109.956 106.259 109.957 106 109.966 105.742C109.969 105.646 109.976 105.576 109.989 105.531C110.005 105.49 110.026 105.456 110.05 105.429C110.075 105.402 110.107 105.378 110.147 105.358C110.187 105.345 110.258 105.328 110.361 105.309C110.625 105.266 110.886 105.239 111.144 105.226C111.406 105.216 111.65 105.215 111.876 105.223C111.984 105.228 112.069 105.231 112.132 105.232C112.199 105.236 112.257 105.261 112.308 105.306ZM102.814 100.565C102.698 100.46 102.639 100.362 102.639 100.27C102.638 100.186 102.69 100.086 102.796 99.9703L103.88 98.7806C103.985 98.6652 104.082 98.6015 104.17 98.5898C104.258 98.5854 104.361 98.6355 104.477 98.7401L109.807 103.538C109.923 103.643 109.981 103.737 109.982 103.822C109.983 103.914 109.931 104.018 109.825 104.133L108.741 105.323C108.636 105.438 108.539 105.498 108.451 105.503C108.363 105.514 108.26 105.468 108.144 105.363L102.814 100.565Z" fill="white"/>
<path d="M103.803 110.257C103.338 110.668 102.966 110.928 102.686 111.036C102.409 111.149 102.225 111.208 102.132 111.214C101.997 111.235 101.868 111.224 101.745 111.18C101.68 111.161 101.582 111.115 101.454 111.042C101.325 110.968 101.197 110.876 101.07 110.765C100.964 110.686 100.899 110.618 100.877 110.561C100.857 110.508 100.863 110.417 100.893 110.286C100.931 110.141 100.984 109.994 101.052 109.843C101.119 109.7 101.179 109.588 101.232 109.506C101.277 109.439 101.318 109.395 101.357 109.375C101.395 109.355 101.458 109.341 101.548 109.331C101.648 109.319 101.778 109.288 101.936 109.238C102.098 109.192 102.278 109.082 102.477 108.906C102.731 108.681 102.917 108.405 103.036 108.078C103.151 107.753 103.17 107.403 103.092 107.027C103.01 106.654 102.802 106.282 102.469 105.909C101.969 105.35 101.435 105.047 100.868 104.999C100.297 104.955 99.764 105.152 99.2685 105.59C99.0149 105.814 98.8268 106.026 98.7042 106.225C98.5851 106.427 98.501 106.599 98.4521 106.74C98.4123 106.851 98.3625 106.913 98.3026 106.924C98.2423 106.943 98.1762 106.935 98.1041 106.901L96.8172 106.319C96.6839 106.256 96.6431 106.163 96.6946 106.041C96.773 105.84 96.9363 105.546 97.1845 105.16C97.4328 104.773 97.8008 104.364 98.2885 103.933C99.2677 103.067 100.281 102.633 101.328 102.632C102.379 102.634 103.366 103.152 104.29 104.184C104.881 104.844 105.252 105.527 105.403 106.235C105.554 106.943 105.493 107.64 105.22 108.326C104.95 109.017 104.478 109.66 103.803 110.257Z" fill="white"/>
<path d="M94.078 107.797C93.992 107.667 93.9602 107.557 93.9825 107.468C94.0033 107.386 94.0792 107.302 94.2101 107.217L95.5585 106.338C95.6894 106.253 95.799 106.216 95.8873 106.227C95.9741 106.245 96.0605 106.319 96.1465 106.45L101.966 115.274C102.035 115.378 102.066 115.473 102.06 115.558C102.034 115.916 101.936 116.35 101.766 116.858C101.734 116.942 101.694 116.999 101.646 117.03C101.589 117.067 101.52 117.081 101.439 117.072C101.157 117.05 100.911 117.018 100.701 116.974C100.487 116.934 100.294 116.882 100.122 116.82C100.041 116.792 99.9663 116.726 99.8975 116.621L96.5211 111.502L96.4425 111.553C95.7792 111.985 95.4072 112.395 95.3264 112.784C95.2441 113.179 95.342 113.588 95.6201 114.01L95.8524 114.362C95.9212 114.466 95.9525 114.561 95.9461 114.646C95.9205 115.004 95.8228 115.438 95.6528 115.946C95.6204 116.03 95.5802 116.087 95.5322 116.118C95.4754 116.155 95.4066 116.169 95.3255 116.16C95.0433 116.138 94.7973 116.106 94.5876 116.062C94.3735 116.022 94.1805 115.97 94.0086 115.908C93.9277 115.88 93.8528 115.814 93.784 115.709L93.5517 115.357C93.3883 115.109 93.2578 114.803 93.1603 114.437C93.0585 114.075 93.0603 113.694 93.1658 113.296C93.2713 112.898 93.5489 112.524 93.9988 112.175L93.9773 112.143C93.5046 112.221 93.0478 112.214 92.6067 112.122C92.1656 112.03 91.7552 111.891 91.3756 111.703C90.9988 111.519 90.6706 111.32 90.3911 111.104C90.1101 110.895 89.8913 110.706 89.7345 110.534C89.5807 110.367 89.5823 110.232 89.7394 110.13L91.4609 109.008C91.6093 108.912 91.7532 108.945 91.8926 109.109C92.0579 109.294 92.2832 109.489 92.5686 109.695C92.8525 109.907 93.1691 110.09 93.5186 110.241C93.8637 110.395 94.2158 110.48 94.5749 110.495C94.9324 110.517 95.2639 110.428 95.5694 110.229L95.648 110.178L94.078 107.797Z" fill="white"/>
<path d="M82.8808 113.473C83.4879 113.961 84.1128 114.525 84.7556 115.165C85.3952 115.812 86.0069 116.491 86.5909 117.2C87.1765 117.915 87.6895 118.619 88.1299 119.311C88.572 120.008 88.8949 120.655 89.0988 121.251C89.1426 121.38 89.15 121.49 89.121 121.582C89.0614 121.778 88.9789 121.987 88.8733 122.21C88.7645 122.439 88.6287 122.686 88.4657 122.95C88.4119 123.034 88.3529 123.087 88.2888 123.108C88.2247 123.13 88.1504 123.122 88.066 123.085C87.7701 122.976 87.5112 122.862 87.2894 122.745C87.0693 122.632 86.8755 122.516 86.7081 122.397C86.6285 122.341 86.5643 122.242 86.5155 122.099L86.5256 122.129C86.3824 121.71 86.1529 121.224 85.8372 120.671C85.5183 120.124 85.1464 119.56 84.7217 118.978C84.2937 118.402 83.8445 117.853 83.3741 117.33C82.9003 116.814 82.4355 116.38 81.9795 116.029L81.9351 116.044C81.7595 116.609 81.6412 117.237 81.5803 117.928C81.5162 118.626 81.4983 119.33 81.5266 120.041C81.5499 120.753 81.61 121.42 81.7069 122.041C81.8006 122.669 81.9207 123.198 82.0673 123.627L82.0597 123.604C82.1086 123.747 82.121 123.864 82.0969 123.955C81.9712 124.36 81.7627 124.812 81.4712 125.312C81.4125 125.398 81.3535 125.451 81.2943 125.471C81.24 125.489 81.1657 125.481 81.0715 125.447C80.7854 125.335 80.5339 125.219 80.3171 125.1C80.1019 124.986 79.9106 124.869 79.7432 124.75C79.6669 124.688 79.606 124.59 79.5605 124.457C79.4071 124.008 79.2935 123.467 79.2196 122.832C79.1425 122.204 79.1004 121.525 79.0934 120.797C79.0864 120.068 79.109 119.329 79.1613 118.58C79.2135 117.832 79.2906 117.107 79.3927 116.408C79.4964 115.713 79.6229 115.085 79.7721 114.523C79.8956 114.047 80.1794 113.734 80.6235 113.584L81.6449 113.239C82.089 113.089 82.501 113.167 82.8808 113.473ZM89.1013 121.259L89.0988 121.251L89.0912 121.229L89.1013 121.259ZM79.5655 124.472L79.5579 124.449L79.5605 124.457L79.5655 124.472Z" fill="white"/>
<path d="M78.2611 125.339C78.2739 125.405 78.2648 125.468 78.2338 125.527C78.2028 125.586 78.162 125.663 78.1113 125.757C77.9998 125.948 77.8667 126.151 77.7121 126.367C77.5584 126.587 77.4008 126.8 77.239 127.006C77.1351 127.127 77.0524 127.193 76.991 127.204C76.9296 127.216 76.8256 127.186 76.6789 127.113C76.1952 126.834 75.7749 126.554 75.418 126.273C75.3366 126.209 75.27 126.152 75.2182 126.104C75.1623 126.062 75.1279 126.007 75.115 125.941C75.1021 125.874 75.1137 125.811 75.1499 125.751C75.1809 125.692 75.2238 125.612 75.2786 125.512C75.386 125.327 75.514 125.125 75.6625 124.905C75.812 124.691 75.9681 124.484 76.1308 124.283C76.1905 124.208 76.2389 124.156 76.2759 124.128C76.3138 124.105 76.3507 124.09 76.3865 124.083C76.4223 124.076 76.4622 124.076 76.5061 124.084C76.5458 124.097 76.6126 124.127 76.7063 124.173C76.9426 124.297 77.1676 124.432 77.3813 124.576C77.596 124.726 77.7913 124.872 77.9672 125.013C78.0496 125.082 78.1157 125.136 78.1655 125.174C78.2163 125.217 78.2482 125.272 78.2611 125.339ZM73.542 115.846C73.5123 115.692 73.5248 115.578 73.5794 115.504C73.6299 115.436 73.7319 115.388 73.8853 115.358L75.466 115.056C75.6195 115.027 75.7349 115.034 75.8123 115.077C75.8856 115.127 75.9371 115.228 75.9668 115.382L77.3303 122.423C77.36 122.576 77.3496 122.687 77.2991 122.755C77.2445 122.829 77.1405 122.881 76.987 122.91L75.4063 123.212C75.2528 123.242 75.1394 123.232 75.0662 123.182C74.9888 123.138 74.9352 123.04 74.9055 122.887L73.542 115.846Z" fill="white"/>
<path d="M67.8674 115.827C68.7453 115.763 69.5192 115.848 70.1891 116.082C70.8593 116.32 71.3955 116.725 71.7977 117.297C72.1999 117.868 72.4356 118.627 72.5048 119.572C72.6086 120.99 72.3235 122.089 71.6495 122.869C70.9755 123.649 70.0358 124.082 68.8307 124.169C68.0463 124.226 67.3737 124.134 66.8129 123.892C66.2469 123.651 65.8056 123.294 65.4889 122.821C65.1671 122.348 64.983 121.795 64.9366 121.161C64.8913 120.543 65.0182 120.101 65.3172 119.833C65.6162 119.566 66.0696 119.411 66.6774 119.367L70.0202 119.125C69.9395 118.593 69.7148 118.199 69.3462 117.944C68.9725 117.689 68.4843 117.584 67.8817 117.627C67.4038 117.662 67.0271 117.759 66.7516 117.92C66.4714 118.087 66.2771 118.216 66.1689 118.307C66.0756 118.387 65.9664 118.429 65.8413 118.433C65.7426 118.44 65.6008 118.429 65.416 118.401C65.2263 118.378 65.0367 118.321 64.8473 118.23C64.7125 118.172 64.6407 118.083 64.632 117.964C64.627 117.896 64.633 117.799 64.6498 117.673C64.6601 117.599 64.6783 117.491 64.7044 117.348C64.7308 117.21 64.7683 117.079 64.8167 116.956C64.8437 116.896 64.889 116.838 64.9527 116.782C65.0513 116.701 65.2131 116.593 65.4381 116.457C65.658 116.321 65.9646 116.194 66.3582 116.077C66.7513 115.954 67.2544 115.871 67.8674 115.827ZM70.1527 120.721L67.6125 120.905C67.3476 120.924 67.224 121.056 67.2419 121.3C67.2689 121.669 67.4084 121.969 67.6604 122.202C67.9076 122.44 68.2624 122.542 68.7247 122.509C69.2286 122.472 69.5883 122.284 69.8037 121.945C70.0138 121.606 70.1302 121.198 70.1527 120.721Z" fill="white"/>
<path d="M62.0867 116.688C62.2078 116.939 62.328 117.282 62.4473 117.716C62.5661 118.156 62.6768 118.639 62.7794 119.166C62.8814 119.698 62.9709 120.226 63.0477 120.749C63.1187 121.277 63.1693 121.758 63.1995 122.192C63.229 122.631 63.2288 122.973 63.1986 123.215C63.1858 123.319 63.1468 123.401 63.0816 123.461C62.8073 123.726 62.4306 123.992 61.9515 124.259C61.8675 124.301 61.7945 124.319 61.7325 124.311C61.6653 124.303 61.5987 124.268 61.5327 124.208C61.316 124.008 61.1369 123.824 60.9952 123.654C60.8483 123.484 60.727 123.32 60.6312 123.161C60.5826 123.087 60.5661 122.988 60.5814 122.864L60.5766 122.902C60.6163 122.582 60.644 122.21 60.6597 121.787C60.6703 121.363 60.6669 120.925 60.6496 120.471C60.6323 120.018 60.5995 119.584 60.5512 119.168C60.4978 118.753 60.427 118.392 60.3388 118.088L60.2923 118.082C60.122 118.355 59.9331 118.715 59.7255 119.162C59.5179 119.609 59.3149 120.082 59.1164 120.583C58.9122 121.088 58.7272 121.563 58.5617 122.01C58.3961 122.457 58.2734 122.812 58.1936 123.075C58.1324 123.272 58.0356 123.397 57.9032 123.449C57.7656 123.5 57.5831 123.512 57.3557 123.484L56.4561 123.374C56.1976 123.342 56.0189 123.281 55.92 123.19C55.8158 123.099 55.7621 122.961 55.7586 122.777C55.7519 122.493 55.7236 122.106 55.674 121.617C55.6237 121.134 55.5641 120.62 55.495 120.076C55.4207 119.532 55.3423 119.021 55.2597 118.544C55.1771 118.067 55.1021 117.698 55.0346 117.438L54.9804 117.432C54.783 117.754 54.5812 118.175 54.375 118.696C54.1682 119.221 53.9837 119.778 53.8215 120.367C53.6593 120.956 53.5462 121.509 53.4821 122.026L53.486 121.995C53.4706 122.119 53.4329 122.211 53.3729 122.272C53.236 122.402 53.0782 122.533 52.8994 122.663C52.7205 122.793 52.5068 122.93 52.2582 123.072C52.1794 123.115 52.109 123.133 52.047 123.125C51.9746 123.116 51.9106 123.082 51.855 123.023C51.6435 122.824 51.4669 122.64 51.3252 122.47C51.1835 122.301 51.0648 122.137 50.969 121.978C50.9256 121.904 50.9109 121.811 50.925 121.697C50.9616 121.444 51.0527 121.112 51.1982 120.699C51.3432 120.292 51.5242 119.847 51.7415 119.365C51.9535 118.882 52.1837 118.401 52.4319 117.923C52.675 117.443 52.9181 117.006 53.1613 116.611C53.3992 116.215 53.6137 115.903 53.8047 115.674C53.928 115.527 54.0335 115.416 54.1213 115.343C54.2091 115.27 54.3115 115.227 54.4284 115.215C54.5402 115.203 54.7046 115.21 54.9218 115.236L55.798 115.344C56.041 115.373 56.2281 115.43 56.3594 115.515C56.4848 115.604 56.5923 115.774 56.6817 116.026C56.7368 116.175 56.7958 116.418 56.8589 116.757C56.9213 117.1 56.9828 117.472 57.0433 117.873C57.1032 118.279 57.1533 118.658 57.1938 119.009C57.2342 119.361 57.2574 119.618 57.2634 119.781C57.2701 119.939 57.2751 120.132 57.2786 120.358C57.2769 120.583 57.2732 120.761 57.2675 120.892L57.3063 120.896C57.3275 120.768 57.3674 120.594 57.4259 120.376C57.4787 120.162 57.5308 119.974 57.5823 119.812C57.6313 119.671 57.716 119.454 57.8365 119.159C57.9564 118.869 58.0985 118.548 58.2629 118.196C58.4215 117.848 58.5868 117.509 58.759 117.178C58.926 116.847 59.0814 116.567 59.2252 116.338C59.3684 116.114 59.5195 115.975 59.6783 115.921C59.8314 115.872 60.0682 115.867 60.3887 115.906L61.2883 116.016C61.5416 116.047 61.71 116.107 61.7934 116.196C61.8717 116.284 61.9694 116.448 62.0867 116.688ZM63.1967 123.231L63.1986 123.215C63.1999 123.205 63.2012 123.195 63.2025 123.184L63.1967 123.231ZM50.9231 121.713L50.927 121.682L50.925 121.697C50.9244 121.702 50.9238 121.707 50.9231 121.713Z" fill="white"/>
<path d="M42.2323 114.981C42.3571 115.034 42.4496 115.109 42.5095 115.208C42.5743 115.309 42.6447 115.443 42.7207 115.61C42.7967 115.777 42.8759 115.977 42.9583 116.21C42.9875 116.301 42.9908 116.373 42.9684 116.426C42.946 116.478 42.8918 116.526 42.8056 116.569C42.3654 116.78 41.9891 116.913 41.677 116.968C41.6031 116.982 41.5133 116.967 41.4077 116.923C41.0811 116.786 40.7482 116.79 40.409 116.936C40.0651 117.08 39.7818 117.427 39.5593 117.977C39.3137 118.569 39.2851 119.043 39.4734 119.399C39.657 119.752 39.9962 120.033 40.4908 120.241L40.8366 120.386C41.1536 120.519 41.3982 120.542 41.5705 120.456C41.7428 120.371 41.8981 120.165 42.0366 119.839L45.1182 112.583C45.1793 112.439 45.2533 112.352 45.3401 112.32C45.4202 112.292 45.5322 112.308 45.6763 112.368L47.2107 113.012C47.3548 113.073 47.4469 113.142 47.4869 113.221C47.5201 113.303 47.5062 113.416 47.4451 113.56L44.0458 121.563C43.8422 122.042 43.6381 122.403 43.4336 122.645C43.2222 122.889 42.9638 123.018 42.6584 123.031C42.3461 123.047 41.9426 122.951 41.4479 122.743L39.7334 122.024C38.355 121.446 37.4495 120.746 37.0168 119.927C36.5821 119.112 36.601 118.148 37.0733 117.036C37.4276 116.202 37.892 115.595 38.4666 115.214C39.0363 114.832 39.6527 114.633 40.3157 114.618C40.9739 114.6 41.6127 114.721 42.2323 114.981Z" fill="#7A5F8A"/>
<path d="M36.9041 107.604C38.0126 108.307 38.7017 109.157 38.9714 110.154C39.2411 111.151 39.0032 112.231 38.2578 113.393C37.4927 114.585 36.5874 115.263 35.5419 115.426C34.4891 115.591 33.4019 115.318 32.2802 114.607C31.1981 113.921 30.5186 113.08 30.2417 112.084C29.962 111.093 30.1849 110.032 30.9107 108.901C31.6673 107.722 32.5695 107.03 33.6171 106.824C34.6647 106.619 35.7604 106.879 36.9041 107.604ZM35.817 109.153C35.3332 108.847 34.8724 108.764 34.4348 108.906C33.9944 109.052 33.5407 109.489 33.0738 110.217C32.6294 110.909 32.4425 111.476 32.5132 111.915C32.5767 112.356 32.8526 112.731 33.3409 113.041C33.8115 113.339 34.2817 113.422 34.7513 113.288C35.2137 113.155 35.6643 112.747 36.1031 112.063C36.5616 111.349 36.7561 110.766 36.6866 110.315C36.6128 109.861 36.3229 109.474 35.817 109.153Z" fill="#7A5F8A"/>
<path d="M26.5375 108.17L26.5139 108.15C25.5065 108.712 24.6178 108.663 23.8476 108.001C23.7489 107.916 23.6731 107.84 23.6201 107.774C23.5638 107.712 23.5272 107.667 23.5103 107.639C23.4682 107.568 23.4779 107.497 23.5394 107.427L24.7753 106.006C24.8813 105.884 24.9815 105.912 25.0758 106.089C25.1061 106.15 25.1581 106.229 25.2319 106.327C25.2982 106.425 25.4104 106.542 25.5684 106.678C25.9752 107.027 26.423 107.151 26.9119 107.05C27.3974 106.952 27.8624 106.648 28.3068 106.137L30.5428 103.567C30.6454 103.449 30.7429 103.389 30.8352 103.386C30.9202 103.384 31.022 103.433 31.1405 103.535L32.3608 104.584C32.4793 104.686 32.5454 104.781 32.5592 104.868C32.5655 104.956 32.5174 105.059 32.4149 105.177L28.1173 110.116C28.0352 110.21 27.9522 110.266 27.8683 110.283C27.6896 110.321 27.4934 110.349 27.2797 110.364C27.0621 110.376 26.812 110.374 26.5293 110.358C26.4772 110.354 26.4319 110.343 26.3935 110.323C26.3551 110.304 26.324 110.284 26.3003 110.264C26.245 110.216 26.2068 110.149 26.1857 110.062C26.0801 109.525 26.0408 109.11 26.0678 108.817C26.0733 108.74 26.1033 108.669 26.158 108.606L26.5375 108.17Z" fill="#7A5F8A"/>
<path d="M26.0869 98.2832C27.2671 99.5612 27.1897 100.809 25.8546 102.027L23.1479 104.497L23.7469 105.146C23.8529 105.26 23.904 105.362 23.9002 105.45C23.8891 105.538 23.8258 105.634 23.7104 105.739L23.0005 106.387C22.8851 106.492 22.7849 106.545 22.6998 106.545C22.6074 106.545 22.5082 106.487 22.4022 106.372L21.8032 105.724L20.8741 106.572C20.7817 106.656 20.6929 106.702 20.6075 106.709C20.2475 106.742 19.8013 106.715 19.2688 106.63C19.1809 106.611 19.1175 106.581 19.0786 106.539C19.0362 106.493 19.013 106.43 19.0091 106.349C18.9841 106.068 18.9762 105.822 18.9853 105.609C18.9909 105.392 19.0104 105.195 19.0439 105.016C19.0586 104.932 19.1121 104.848 19.2045 104.764L20.1336 103.916L19.1955 102.9C19.0894 102.785 19.042 102.684 19.0532 102.596C19.0569 102.508 19.1165 102.412 19.2319 102.306L19.9418 101.659C20.0572 101.553 20.1612 101.501 20.2536 101.501C20.3386 101.501 20.4341 101.558 20.5401 101.673L21.4783 102.689L23.8676 100.509C24.4832 99.9474 24.586 99.4446 24.1762 99.0008C24.1125 98.9319 24.0485 98.874 23.9839 98.8272C23.9155 98.7838 23.8542 98.7481 23.7999 98.7201C23.695 98.6678 23.6322 98.6229 23.6116 98.5852C23.5875 98.5438 23.6016 98.4745 23.6538 98.3775L24.2409 97.2285C24.3053 97.1063 24.3957 97.066 24.5123 97.1078C24.5922 97.1406 24.7712 97.2346 25.0492 97.3898C25.3276 97.5377 25.6735 97.8355 26.0869 98.2832Z" fill="#7A5F8A"/>
<path d="M22.074 94.1633C22.1999 94.0708 22.3082 94.0332 22.399 94.0505C22.4825 94.0667 22.5708 94.1375 22.6641 94.2629L23.6245 95.5543C23.7177 95.6797 23.7615 95.7865 23.7557 95.8748C23.7426 95.9619 23.6731 96.0518 23.5472 96.1443L18.901 99.5582L19.4511 100.298C19.5444 100.423 19.5845 100.53 19.5714 100.617C19.551 100.703 19.4779 100.792 19.352 100.885L18.5776 101.454C18.4517 101.546 18.3464 101.588 18.2619 101.579C18.17 101.569 18.0775 101.501 17.9842 101.376L17.4341 100.636L16.6345 101.224C16.1267 101.597 15.6156 101.817 15.1012 101.885C14.5838 101.948 14.099 101.881 13.6469 101.683C13.1916 101.482 12.807 101.17 12.4931 100.747C12.347 100.551 12.2451 100.396 12.1873 100.284C12.1264 100.167 12.0941 100.071 12.0903 99.9963C12.0615 99.7655 12.0825 99.4011 12.1534 98.903C12.1696 98.82 12.2029 98.76 12.2533 98.723C12.3078 98.6829 12.3972 98.6722 12.5214 98.6908C12.7447 98.7206 12.9445 98.7579 13.1208 98.8029C13.2929 98.851 13.4284 98.8936 13.5274 98.9307C13.6118 98.9657 13.6768 99.0051 13.7225 99.0491C13.7609 99.092 13.8112 99.1552 13.8734 99.2388C14.178 99.6484 14.645 99.6219 15.2746 99.1593L15.9608 98.6551L15.117 97.5204C15.0237 97.395 14.9873 97.2893 15.0077 97.2032C15.0207 97.1161 15.0902 97.0262 15.2162 96.9337L15.9905 96.3647C16.1164 96.2722 16.2253 96.231 16.3172 96.241C16.4017 96.25 16.4906 96.3172 16.5839 96.4426L17.4277 97.5772L22.074 94.1633Z" fill="#7A5F8A"/>
<path d="M19.4569 88.7123C20.0894 89.8624 20.2834 90.9394 20.0391 91.9435C19.7949 92.9476 19.0663 93.7791 17.8536 94.438C16.6088 95.1144 15.489 95.2723 14.4943 94.9118C13.4925 94.5493 12.6716 93.7861 12.0316 92.6223C11.4141 91.4997 11.224 90.4353 11.4613 89.4291C11.6939 88.4255 12.4006 87.6029 13.5813 86.9613C14.8123 86.2924 15.9362 86.1204 16.953 86.4452C17.9697 86.77 18.8043 87.5257 19.4569 88.7123ZM17.758 89.5465C17.4819 89.0445 17.118 88.7502 16.6663 88.6637C16.2099 88.5797 15.6019 88.7441 14.8422 89.1569C14.1192 89.5498 13.6827 89.9559 13.5329 90.3751C13.376 90.7923 13.4368 91.2542 13.7154 91.7608C13.9839 92.2491 14.3562 92.5477 14.8322 92.6566C15.301 92.7634 15.8924 92.6229 16.6063 92.235C17.3523 91.8296 17.8035 91.4126 17.96 90.9838C18.114 90.5504 18.0466 90.0713 17.758 89.5465Z" fill="#7A5F8A"/>
<path d="M16.909 83.2896C16.9927 83.3743 17.0432 83.4385 17.0604 83.4821C17.0776 83.5257 17.0787 83.5784 17.0639 83.6401C17.0301 83.7818 16.8914 83.9839 16.6478 84.2464C16.3974 84.506 15.9567 84.7586 15.3258 85.0042L6.89531 88.2864C6.77883 88.3318 6.67949 88.3425 6.5973 88.3186C6.25016 88.219 5.84395 88.0334 5.37866 87.7619C5.30339 87.7129 5.25526 87.6618 5.23425 87.6085C5.20943 87.5455 5.20983 87.4755 5.23545 87.3984C5.31351 87.1277 5.39522 86.8947 5.4806 86.6994C5.56406 86.4992 5.6537 86.3218 5.7495 86.1671C5.7935 86.0941 5.87374 86.0349 5.99022 85.9896L13.9766 82.8803C14.2969 82.7555 14.5607 82.6221 14.7678 82.48C14.97 82.3398 15.1248 82.2069 15.232 82.0813C15.3597 81.9366 15.4862 81.9236 15.6114 82.0426L16.909 83.2896Z" fill="#7A5F8A"/>
<path d="M5.61982 83.8132C5.55496 83.8326 5.49154 83.8299 5.42955 83.8049C5.36757 83.78 5.28685 83.7471 5.18737 83.7062C4.98541 83.6145 4.76916 83.5025 4.53862 83.3704C4.3031 83.2398 4.07431 83.1044 3.85224 82.9644C3.72118 82.8731 3.64658 82.7976 3.62845 82.7378C3.61032 82.678 3.62976 82.5716 3.68679 82.4186C3.91365 81.9102 4.14867 81.4647 4.39184 81.082C4.44704 80.9948 4.49604 80.923 4.53883 80.8667C4.57513 80.8069 4.62571 80.7673 4.69057 80.7478C4.75543 80.7284 4.81961 80.7337 4.8831 80.7636C4.94508 80.7885 5.02906 80.8232 5.13503 80.8675C5.3305 80.9558 5.54524 81.0627 5.77925 81.1884C6.00827 81.3155 6.23132 81.4499 6.4484 81.5915C6.52942 81.6433 6.58596 81.6862 6.618 81.7201C6.64506 81.7555 6.66388 81.7906 6.67445 81.8255C6.68503 81.8604 6.68888 81.9 6.686 81.9444C6.67662 81.9852 6.65408 82.0545 6.61838 82.1522C6.51916 82.3994 6.40868 82.6364 6.28694 82.8631C6.1602 83.0914 6.03567 83.2999 5.91332 83.4888C5.85314 83.5775 5.80664 83.6485 5.77382 83.7018C5.73601 83.7567 5.68468 83.7938 5.61982 83.8132ZM14.581 78.1771C14.7307 78.1322 14.8453 78.1332 14.9248 78.1801C14.9978 78.2235 15.057 78.3199 15.1023 78.4695L15.5692 80.0096C15.6145 80.1592 15.6196 80.2745 15.5843 80.3558C15.5426 80.4335 15.4469 80.4948 15.2972 80.5396L8.42685 82.5973C8.27717 82.6422 8.16582 82.6429 8.09281 82.5995C8.01329 82.5527 7.95087 82.4545 7.90554 82.3049L7.43865 80.7648C7.39332 80.6152 7.39153 80.5016 7.43327 80.4239C7.46851 80.3426 7.56097 80.2796 7.71065 80.2348L14.581 78.1771Z" fill="#7A5F8A"/>
<path d="M14.0242 72.5851C14.242 73.8794 14.0702 74.9613 13.5087 75.8307C12.9473 76.7002 11.9858 77.2481 10.6243 77.4744C9.22678 77.7067 8.11813 77.4897 7.29831 76.8235C6.47249 76.1529 5.9494 75.1628 5.72904 73.8531C5.51646 72.5896 5.68789 71.521 6.24332 70.6472C6.79362 69.7744 7.73155 69.2277 9.05711 69.0074C10.4392 68.7777 11.5564 68.9827 12.4087 69.6224C13.2611 70.2621 13.7996 71.2497 14.0242 72.5851ZM12.1462 72.818C12.0512 72.2531 11.8048 71.8558 11.407 71.6263C11.0041 71.3976 10.3762 71.3541 9.52333 71.4959C8.71155 71.6308 8.16588 71.872 7.88632 72.2194C7.60075 72.5626 7.50593 73.0192 7.60185 73.5893C7.69431 74.1389 7.94716 74.543 8.36038 74.8016C8.76761 75.056 9.37197 75.1166 10.1735 74.9833C11.0109 74.8441 11.5742 74.5974 11.8631 74.2431C12.1512 73.8837 12.2456 73.4087 12.1462 72.818Z" fill="#7A5F8A"/>
<path d="M17.3896 56.1641C17.3981 56.233 17.3989 56.3011 17.3919 56.3685C17.3271 56.9901 17.1231 57.566 16.7798 58.0961C16.4417 58.6268 15.9948 59.0468 15.4389 59.3561C14.883 59.6653 14.2491 59.7938 13.5371 59.7414C13.1971 60.9945 12.5297 61.9467 11.5349 62.5983C10.5355 63.2441 9.21725 63.4827 7.58007 63.3142C5.59577 63.1099 4.16708 62.4732 3.29401 61.4042C2.41576 60.3347 2.06679 58.9348 2.24709 57.2046C2.41606 55.5832 3.0289 54.3504 4.08563 53.5063C5.13717 52.6616 6.60069 52.3358 8.47619 52.5289C10.1341 52.6996 11.3963 53.1752 12.2628 53.9555C13.1241 54.7353 13.6237 55.7449 13.7616 56.9843C14.2145 57.01 14.5386 56.9151 14.7339 56.6996C14.9349 56.4794 15.0874 56.1967 15.1914 55.8514C15.2246 55.7343 15.2628 55.644 15.3061 55.5804C15.3499 55.5116 15.4225 55.4432 15.5238 55.3751C15.8184 55.2117 16.1543 55.0787 16.5315 54.9762C16.6343 54.9449 16.7168 54.9324 16.7789 54.9388C16.8722 54.9484 16.9523 55.009 17.0192 55.1206C17.1391 55.3267 17.2256 55.5267 17.2787 55.7207C17.3375 55.91 17.3745 56.0578 17.3896 56.1641ZM11.6601 58.3073C11.7572 57.3748 11.4951 56.6489 10.8737 56.1294C10.2524 55.6099 9.40804 55.2952 8.34077 55.1853C7.10252 55.0578 6.15041 55.1744 5.48443 55.5352C4.81845 55.896 4.43633 56.5478 4.33808 57.4906C4.14429 59.3503 5.27268 60.4063 7.72327 60.6586C8.81645 60.7712 9.72301 60.6394 10.443 60.2632C11.1583 59.8814 11.564 59.2294 11.6601 58.3073Z" fill="white"/>
<path d="M15.513 50.0479C14.9685 51.8204 13.6223 52.3806 11.4742 51.7287L7.67424 50.5836C7.55462 50.5473 7.47007 50.4945 7.42057 50.425C7.21069 50.1327 7.00821 49.7365 6.81311 49.2364C6.78469 49.1516 6.77888 49.0818 6.79571 49.0271C6.81559 48.9623 6.85962 48.9077 6.92781 48.863C7.15804 48.6989 7.3676 48.5665 7.55648 48.466C7.7469 48.3605 7.92793 48.2767 8.0996 48.2144C8.17968 48.1843 8.27953 48.1874 8.39914 48.2237L11.9875 49.3127C13.069 49.641 13.7413 49.3769 14.0044 48.5206C14.1343 48.0974 14.0913 47.7142 13.8753 47.371C13.6542 47.0264 13.2895 46.7769 12.7812 46.6226L9.22269 45.5427C9.10308 45.5064 9.01853 45.4535 8.96903 45.384C8.75915 45.0917 8.55666 44.6955 8.36157 44.1955C8.33314 44.1106 8.32734 44.0408 8.34416 43.9861C8.36404 43.9214 8.40808 43.8667 8.47627 43.8221C8.7065 43.6579 8.91606 43.5255 9.10494 43.425C9.29535 43.3195 9.47639 43.2357 9.64806 43.1735C9.72814 43.1433 9.82799 43.1464 9.9476 43.1827L16.4366 45.1521C16.5313 45.1808 16.6036 45.2381 16.6535 45.324C16.6984 45.4084 16.7056 45.5004 16.675 45.6L16.3309 46.7202C16.3064 46.7998 16.2742 46.869 16.2344 46.9277C16.1912 46.9799 16.1287 47.0235 16.0471 47.0586L15.3068 47.3401L15.2908 47.3924C15.3809 47.5068 15.4748 47.6714 15.5723 47.886C15.6713 48.0957 15.7267 48.3765 15.7385 48.7284C15.7518 49.0754 15.6766 49.5152 15.513 50.0479Z" fill="white"/>
<path d="M7.52142 40.3384C7.45962 40.3108 7.41353 40.2673 7.38317 40.2081C7.35281 40.1489 7.31356 40.0714 7.26542 39.9757C7.17342 39.7748 7.08396 39.5494 6.99704 39.2994C6.90536 39.0473 6.82189 38.796 6.74662 38.5455C6.70784 38.3912 6.70134 38.2856 6.72711 38.2287C6.75289 38.1717 6.8378 38.1042 6.98183 38.0259C7.48864 37.7905 7.96015 37.6077 8.39638 37.4776C8.49562 37.4478 8.57999 37.4257 8.64947 37.4111C8.71635 37.3897 8.78069 37.3928 8.84249 37.4204C8.9043 37.4481 8.94931 37.4939 8.97752 37.5578C9.00788 37.6171 9.04844 37.698 9.09919 37.8005C9.18858 37.9946 9.28018 38.2153 9.37401 38.4626C9.46308 38.7079 9.54288 38.9547 9.61339 39.203C9.64037 39.295 9.65478 39.3642 9.65661 39.4106C9.65369 39.455 9.64471 39.4938 9.62967 39.527C9.61463 39.5602 9.59139 39.5926 9.55994 39.6242C9.52589 39.6489 9.46315 39.6864 9.37173 39.7368C9.13367 39.8585 8.89384 39.9652 8.65225 40.0569C8.40591 40.1464 8.17422 40.2225 7.95718 40.2851C7.85319 40.3128 7.7712 40.336 7.71123 40.3549C7.6465 40.3715 7.58323 40.3661 7.52142 40.3384ZM18.0088 41.9313C18.1514 41.9951 18.2373 42.0706 18.2665 42.1578C18.293 42.2381 18.274 42.3494 18.2096 42.4918L17.5458 43.9579C17.4814 44.1002 17.409 44.1905 17.3288 44.2288C17.246 44.2603 17.1333 44.2441 16.9906 44.1803L10.4438 41.2519C10.3012 41.1881 10.2166 41.1161 10.1901 41.0357C10.161 40.9485 10.1786 40.8338 10.2431 40.6914L10.9068 39.2253C10.9713 39.0829 11.0449 38.9961 11.1277 38.9646C11.208 38.9264 11.3194 38.9391 11.462 39.0029L18.0088 41.9313Z" fill="white"/>
<path d="M14.0951 32.9974C14.4108 32.464 14.6852 32.1026 14.9184 31.9132C15.1471 31.7211 15.3047 31.6082 15.3913 31.5744C15.5127 31.5126 15.6387 31.4837 15.7694 31.4878C15.8375 31.4853 15.9441 31.4994 16.0894 31.5301C16.2346 31.5607 16.3845 31.6092 16.539 31.6754C16.6647 31.7187 16.7469 31.7638 16.7857 31.8106C16.8201 31.8549 16.8431 31.9438 16.8549 32.0773C16.8631 32.227 16.858 32.3839 16.8395 32.548C16.8192 32.7051 16.7964 32.8305 16.7711 32.9243C16.7493 33.0021 16.7233 33.0562 16.693 33.0868C16.6628 33.1174 16.6067 33.151 16.5246 33.1874C16.4327 33.2302 16.319 33.2995 16.1836 33.3953C16.0437 33.4884 15.9062 33.6493 15.7708 33.8779C15.5984 34.1692 15.5058 34.4892 15.4932 34.8377C15.4832 35.1818 15.5729 35.5209 15.7625 35.8551C15.9547 36.1847 16.2667 36.4757 16.6983 36.7281C17.3457 37.1068 17.9465 37.2319 18.5006 37.1034C19.0574 36.9705 19.5043 36.6195 19.8412 36.0503C20.0137 35.759 20.1277 35.4998 20.1834 35.2729C20.2345 35.0434 20.2618 34.8542 20.2652 34.7053C20.2688 34.5868 20.2973 34.513 20.3508 34.4839C20.4025 34.4478 20.4678 34.4347 20.5466 34.4446L21.9499 34.6046C22.0959 34.6236 22.1632 34.6992 22.1516 34.8312C22.1389 35.047 22.0737 35.3769 21.9561 35.821C21.8385 36.265 21.6139 36.7672 21.2822 37.3274C20.6163 38.4524 19.7854 39.1762 18.7895 39.4988C17.7891 39.8187 16.6909 39.629 15.495 38.9296C14.7307 38.4826 14.1681 37.9454 13.8071 37.318C13.4462 36.6906 13.2903 36.0081 13.3395 35.2706C13.3842 34.5305 13.6361 33.7728 14.0951 32.9974Z" fill="white"/>
<path d="M24.096 32.3721C24.2179 32.4699 24.2819 32.5646 24.288 32.6563C24.2933 32.7406 24.2467 32.8435 24.1483 32.9648L23.1341 34.2144C23.0357 34.3357 22.9427 34.4048 22.8554 34.4215C22.7672 34.4309 22.6622 34.3868 22.5403 34.289L14.2937 27.6766C14.1962 27.5984 14.1374 27.5179 14.1174 27.4351C14.0317 27.086 13.9918 26.6435 13.9976 26.1074C14.0029 26.0182 14.0236 25.9513 14.0597 25.9068C14.1024 25.8543 14.1638 25.82 14.2438 25.8041C14.519 25.7377 14.7631 25.6931 14.9761 25.6703C15.1924 25.6435 15.3919 25.6332 15.5746 25.6395C15.6603 25.6414 15.7519 25.6815 15.8494 25.7597L20.634 29.5962L20.6931 29.5234C21.192 28.9087 21.4203 28.4042 21.3781 28.0098C21.3352 27.6082 21.1166 27.2494 20.7225 26.9333L20.3933 26.6694C20.2958 26.5912 20.237 26.5107 20.217 26.4279C20.1314 26.0789 20.0915 25.6363 20.0973 25.1002C20.1026 25.011 20.1233 24.9442 20.1594 24.8997C20.2021 24.8471 20.2634 24.8129 20.3434 24.7969C20.6186 24.7305 20.8628 24.686 21.0758 24.6632C21.2921 24.6363 21.4916 24.6261 21.6743 24.6324C21.7599 24.6343 21.8515 24.6743 21.949 24.7525L22.2782 25.0165C22.5098 25.2022 22.728 25.4539 22.9329 25.7718C23.1411 26.0856 23.256 26.4481 23.2777 26.8594C23.2995 27.2707 23.1497 27.7114 22.8285 28.1815L22.859 28.2059C23.2851 27.9868 23.7221 27.8532 24.1702 27.8053C24.6183 27.7573 25.0518 27.7645 25.4708 27.8268C25.8857 27.8858 26.2593 27.9751 26.5916 28.0946C26.9231 28.2069 27.1897 28.3205 27.3915 28.4356C27.5892 28.5474 27.6289 28.676 27.5108 28.8216L26.216 30.417C26.1044 30.5545 25.9571 30.5666 25.7741 30.4532C25.5602 30.3284 25.2858 30.2119 24.951 30.1037C24.6155 29.9882 24.2581 29.9119 23.879 29.8749C23.5031 29.8339 23.142 29.8615 22.7957 29.9576C22.4486 30.0464 22.1601 30.2324 21.9304 30.5155L21.8713 30.5883L24.096 32.3721Z" fill="white"/>
<path d="M32.9157 23.417C32.1869 23.1407 31.4175 22.7972 30.6075 22.3867C29.7984 21.9689 29.0062 21.5127 28.2307 21.0181C27.4521 20.5193 26.7461 20.0088 26.1127 19.4866C25.4762 18.9602 24.9686 18.445 24.5901 17.9412C24.5087 17.8329 24.4676 17.7305 24.4667 17.6339C24.4627 17.4292 24.4766 17.2049 24.5082 16.9609C24.5409 16.7096 24.594 16.4334 24.6675 16.1324C24.6927 16.0358 24.7325 15.9674 24.7869 15.927C24.8412 15.8867 24.9144 15.8713 25.0063 15.8809C25.3217 15.8933 25.6032 15.9211 25.8507 15.9644C26.0951 16.0035 26.3154 16.054 26.5117 16.1159C26.6046 16.1442 26.6965 16.2187 26.7872 16.3395L26.7684 16.3145C27.0343 16.6684 27.4031 17.0595 27.8747 17.4878C28.3474 17.9088 28.8759 18.3305 29.4604 18.7529C30.0458 19.168 30.6434 19.5515 31.2529 19.9033C31.8636 20.2478 32.4404 20.517 32.9833 20.7107L33.0209 20.6827C33.0133 20.0917 32.9316 19.4583 32.7757 18.7827C32.6209 18.0997 32.4202 17.425 32.1735 16.7584C31.9309 16.0888 31.6674 15.4736 31.3829 14.9129C31.0995 14.3449 30.8217 13.8798 30.5495 13.5175L30.5636 13.5362C30.4729 13.4155 30.425 13.3084 30.4199 13.2149C30.4141 12.791 30.4727 12.2967 30.5956 11.732C30.625 11.6324 30.6648 11.5639 30.715 11.5267C30.761 11.4925 30.8341 11.4771 30.9344 11.4805C31.2415 11.4991 31.5167 11.5315 31.76 11.578C32.0002 11.6202 32.2184 11.6722 32.4147 11.7341C32.5066 11.7697 32.5948 11.8437 32.6792 11.9561C32.9639 12.335 33.2396 12.8147 33.5063 13.3951C33.774 13.9682 34.024 14.6 34.256 15.2904C34.4881 15.9808 34.6951 16.6898 34.877 17.4175C35.0589 18.1452 35.2095 18.8571 35.3287 19.5535C35.4449 20.2456 35.5188 20.8816 35.5504 21.4613C35.5801 21.9517 35.4067 22.3365 35.0304 22.6159L34.1647 23.2585C33.7883 23.5379 33.372 23.5907 32.9157 23.417ZM24.5854 17.9349L24.5901 17.9412L24.6041 17.9599L24.5854 17.9349ZM32.6699 11.9436L32.6839 11.9623L32.6792 11.9561L32.6699 11.9436Z" fill="white"/>
<path d="M33.6838 10.8753C33.6509 10.8161 33.64 10.7538 33.6511 10.6882C33.6623 10.6226 33.6773 10.5371 33.696 10.4316C33.7427 10.2157 33.8061 9.98166 33.8862 9.72949C33.9638 9.47278 34.0475 9.22163 34.1372 8.97605C34.1986 8.82934 34.2566 8.74091 34.3114 8.71078C34.3661 8.68064 34.4746 8.67741 34.6369 8.70108C35.1839 8.81619 35.6711 8.95232 36.0984 9.10949C36.1958 9.1451 36.2766 9.17788 36.341 9.20784C36.4074 9.23074 36.4571 9.27177 36.4901 9.33092C36.523 9.39007 36.5316 9.4537 36.5159 9.5218C36.5047 9.58739 36.4888 9.67644 36.468 9.78894C36.4233 9.9978 36.3645 10.2293 36.2915 10.4835C36.2159 10.7332 36.132 10.9785 36.0397 11.2196C36.0062 11.3093 35.9763 11.3733 35.95 11.4116C35.9211 11.4454 35.8906 11.471 35.8587 11.4886C35.8267 11.5062 35.7887 11.5182 35.7446 11.5246C35.7025 11.524 35.6298 11.5165 35.5264 11.5021C35.2627 11.4569 35.0067 11.3986 34.7583 11.3273C34.5074 11.2514 34.2762 11.1735 34.0648 11.0936C33.9649 11.0535 33.8853 11.023 33.826 11.0021C33.7642 10.9767 33.7168 10.9344 33.6838 10.8753ZM41.1304 18.4321C41.2064 18.5686 41.23 18.6805 41.2011 18.7678C41.1742 18.848 41.0923 18.9257 40.9554 19.001L39.5454 19.777C39.4086 19.8523 39.2965 19.8813 39.2093 19.8639C39.1241 19.8394 39.0435 19.7589 38.9675 19.6224L35.4775 13.357C35.4015 13.2205 35.3769 13.1121 35.4038 13.0319C35.4327 12.9447 35.5156 12.8634 35.6525 12.7881L37.0625 12.0121C37.1993 11.9368 37.3104 11.9114 37.3955 11.9358C37.4827 11.9532 37.5644 12.0302 37.6404 12.1667L41.1304 18.4321Z" fill="white"/>
<path d="M46.5758 16.6891C45.7599 17.0194 44.9969 17.1765 44.2868 17.1605C43.5747 17.1397 42.9386 16.9196 42.3784 16.5002C41.8182 16.0807 41.3585 15.4324 40.9991 14.5553C40.4601 13.2395 40.3903 12.1075 40.7898 11.1592C41.1893 10.2109 41.9491 9.51005 43.0691 9.0567C43.7981 8.76163 44.467 8.64262 45.0757 8.69965C45.6893 8.75473 46.2202 8.95844 46.6684 9.31078C47.1216 9.66117 47.4685 10.1304 47.7094 10.7183C47.9444 11.2919 47.961 11.7515 47.7593 12.0972C47.5576 12.4429 47.1743 12.7301 46.6095 12.9587L43.5027 14.2162C43.7447 14.697 44.0808 15.002 44.5108 15.1314C44.9458 15.2587 45.4432 15.2091 46.0033 14.9824C46.4474 14.8026 46.7756 14.594 46.9878 14.3564C47.2029 14.112 47.3478 13.9297 47.4224 13.8096C47.4865 13.705 47.5774 13.6317 47.6953 13.5896C47.787 13.5525 47.9253 13.519 48.11 13.4892C48.2977 13.4526 48.4957 13.4483 48.7042 13.4763C48.8505 13.4901 48.9464 13.5524 48.9918 13.6632C49.0175 13.7259 49.042 13.8199 49.0652 13.9454C49.0784 14.0187 49.0947 14.1273 49.1142 14.2711C49.1318 14.4101 49.1367 14.5457 49.129 14.6781C49.1217 14.7428 49.0966 14.812 49.0536 14.8856C48.9847 14.9922 48.8643 15.1448 48.6924 15.3436C48.5254 15.5404 48.2728 15.7551 47.9347 15.9875C47.5985 16.2247 47.1455 16.4586 46.5758 16.6891ZM42.8811 12.74L45.2419 11.7845C45.4882 11.6848 45.5649 11.5217 45.4721 11.2952C45.3319 10.953 45.1058 10.7102 44.7938 10.5668C44.4846 10.4166 44.1152 10.4285 43.6855 10.6024C43.2172 10.792 42.9332 11.0811 42.8335 11.4698C42.7387 11.8565 42.7545 12.2799 42.8811 12.74Z" fill="white"/>
<path d="M51.7185 14.1361C51.5256 13.9343 51.3053 13.6449 51.0575 13.268C50.8086 12.886 50.5539 12.4601 50.2934 11.9902C50.0319 11.5151 49.7837 11.0402 49.5488 10.5654C49.318 10.0846 49.1211 9.64227 48.9583 9.23856C48.7944 8.82974 48.6893 8.50515 48.6429 8.2648C48.6231 8.16253 48.6349 8.07278 48.6784 7.99556C48.8574 7.65916 49.1337 7.29094 49.5073 6.89089C49.5742 6.82511 49.6383 6.78636 49.6997 6.77464C49.7662 6.76195 49.8402 6.77433 49.9217 6.8118C50.1897 6.93565 50.4173 7.05658 50.6045 7.17462C50.7969 7.29167 50.9631 7.41105 51.1034 7.53276C51.1725 7.5885 51.2189 7.67773 51.2426 7.80047L51.2352 7.76211C51.2964 8.07917 51.385 8.44139 51.5008 8.84877C51.6217 9.25518 51.7605 9.67144 51.9171 10.0976C52.0736 10.5237 52.2391 10.9269 52.4133 11.3072C52.5927 11.6866 52.7714 12.0077 52.9495 12.2707L52.9956 12.2619C53.0733 11.9501 53.1418 11.55 53.2013 11.0614C53.2608 10.5728 53.3076 10.0602 53.3418 9.52341C53.3802 8.98056 53.4091 8.47131 53.4287 7.99568C53.4482 7.52005 53.4553 7.14488 53.45 6.87017C53.4472 6.6639 53.5009 6.51581 53.6108 6.4259C53.7259 6.33501 53.8959 6.26808 54.121 6.22512L55.0112 6.05523C55.267 6.00641 55.4561 6.01011 55.5783 6.06631C55.7057 6.12154 55.7994 6.2362 55.8596 6.4103C55.9539 6.67864 56.1002 7.03779 56.2985 7.48775C56.4958 7.9326 56.7113 8.40314 56.9451 8.89936C57.184 9.39461 57.4165 9.85662 57.6425 10.2854C57.8686 10.7141 58.0539 11.042 58.1985 11.2689L58.2522 11.2586C58.3405 10.8918 58.4024 10.4293 58.4378 9.87115C58.4722 9.30784 58.4756 8.72128 58.448 8.11148C58.4204 7.50168 58.3572 6.94109 58.2584 6.42971L58.2643 6.4604C58.2406 6.33766 58.2479 6.23818 58.2862 6.16193C58.3762 5.99629 58.4862 5.82419 58.6162 5.64562C58.7461 5.46705 58.9073 5.27191 59.0998 5.06019C59.1616 4.99539 59.2232 4.95712 59.2845 4.94541C59.3562 4.93174 59.4276 4.94461 59.4989 4.98404C59.7617 5.10885 59.9867 5.23028 60.174 5.34831C60.3612 5.46635 60.5249 5.58621 60.6652 5.70792C60.7292 5.76464 60.772 5.84925 60.7938 5.96175C60.837 6.2133 60.8531 6.55753 60.8421 6.99444C60.83 7.42623 60.7951 7.90479 60.7374 8.43012C60.6849 8.95448 60.6144 9.48225 60.5261 10.0134C60.4428 10.5436 60.3466 11.0339 60.2373 11.4843C60.1331 11.9336 60.0255 12.2962 59.9143 12.5719C59.8426 12.75 59.7763 12.8872 59.7153 12.9837C59.6544 13.0802 59.5701 13.1519 59.4625 13.199C59.36 13.245 59.2013 13.2886 58.9865 13.3296L58.1193 13.4951C57.8789 13.541 57.6831 13.5439 57.5322 13.5037C57.3853 13.4575 57.2303 13.328 57.0672 13.1153C56.9689 12.9909 56.8375 12.7773 56.673 12.4747C56.5074 12.1669 56.3339 11.8315 56.1524 11.4685C55.9699 11.1004 55.8051 10.7554 55.658 10.4335C55.511 10.1116 55.4094 9.87381 55.3532 9.72016C55.2979 9.57163 55.2337 9.39035 55.1606 9.17631C55.0925 8.9613 55.041 8.79085 55.0061 8.66496L54.9677 8.67228C54.9873 8.8011 55.003 8.97839 55.0148 9.20414C55.0307 9.4238 55.0391 9.61838 55.04 9.78788C55.037 9.93692 55.0237 10.1701 55.0001 10.4875C54.9755 10.7997 54.9395 11.1486 54.8919 11.5341C54.8485 11.9135 54.796 12.2868 54.7343 12.6538C54.6777 13.0199 54.6163 13.3338 54.5502 13.5956C54.4831 13.8524 54.3822 14.0307 54.2477 14.1306C54.1173 14.2244 53.8935 14.3016 53.5763 14.3621L52.6861 14.532C52.4354 14.5798 52.2566 14.5742 52.1497 14.5151C52.0479 14.4549 51.9042 14.3286 51.7185 14.1361ZM48.6399 8.24946L48.6429 8.2648C48.6448 8.27503 48.6468 8.28526 48.6488 8.29549L48.6399 8.24946ZM60.7908 5.94641L60.7967 5.97709L60.7938 5.96175C60.7928 5.95664 60.7918 5.95152 60.7908 5.94641Z" fill="white"/>
</svg>
