<svg width="50" height="75" viewBox="0 0 50 75" fill="none" xmlns="http://www.w3.org/2000/svg">
<path d="M0 12.5C0 5.59644 5.59644 0 12.5 0H25V25H12.5C5.59644 25 0 19.4036 0 12.5Z" fill="#F24E1E"/>
<path d="M25 0H37.5C44.4036 0 50 5.59644 50 12.5C50 19.4036 44.4036 25 37.5 25H25V0Z" fill="#FF7262"/>
<path d="M25 37.5C25 30.5964 30.5964 25 37.5 25C44.4036 25 50 30.5964 50 37.5C50 44.4036 44.4036 50 37.5 50C30.5964 50 25 44.4036 25 37.5Z" fill="#1ABCFE"/>
<path d="M0 37.5C0 30.5964 5.59644 25 12.5 25H25V50H12.5C5.59644 50 0 44.4036 0 37.5Z" fill="#A259FF"/>
<path d="M0 62.5C0 55.5964 5.59644 50 12.5 50H25V62.5C25 69.4036 19.4036 75 12.5 75C5.59644 75 0 69.4036 0 62.5Z" fill="#0ACF83"/>
</svg>
