<svg width="101" height="101" viewBox="0 0 101 101" fill="none" xmlns="http://www.w3.org/2000/svg">
<path d="M100.269 50.5517C100.269 78.1659 77.8832 100.552 50.269 100.552C22.6547 100.552 0.268978 78.1659 0.268978 50.5517C0.268978 22.9374 22.6547 0.551659 50.269 0.551659C77.8832 0.551659 100.269 22.9374 100.269 50.5517Z" fill="#FFCF00"/>
<path d="M56.9799 50.4286L56.766 50.6425L56.9799 50.8563L29.103 78.7333L20.269 69.8993L39.5258 50.6425L20.269 31.3856L29.103 22.5517L56.9799 50.4286Z" fill="#010101"/>
<path d="M86.9799 50.4286L86.766 50.6425L86.9799 50.8563L59.103 78.7333L50.269 69.8993L69.5258 50.6425L50.269 31.3856L59.103 22.5517L86.9799 50.4286Z" fill="#010101"/>
</svg>
