<svg width="40" height="25" viewBox="0 0 40 25" fill="none" xmlns="http://www.w3.org/2000/svg">
<rect x="0.5" y="0.5" width="39" height="24" rx="2.5" stroke="#F41C72"/>
<path d="M17.044 7.076H18.028V17.948H17.044V7.076ZM14.188 11.108H17.332V11.924H14.188V11.108ZM9.532 7.928H10.528V10.748H13.54V7.928H14.512V15.212H9.532V7.928ZM10.528 11.54V14.396H13.54V11.54H10.528ZM20.1271 13.088H29.9431V13.892H20.1271V13.088ZM21.3991 16.88H28.9111V17.696H21.3991V16.88ZM21.3991 14.684H22.3831V17.18H21.3991V14.684ZM21.4231 11.3H28.7911V12.08H21.4231V11.3ZM21.4231 7.484H28.7311V8.264H22.4191V11.6H21.4231V7.484ZM22.1191 9.38H28.4431V10.148H22.1191V9.38Z" fill="#F41C72"/>
</svg>
