<svg width="182" height="184" viewBox="0 0 182 184" fill="none" xmlns="http://www.w3.org/2000/svg">
<path d="M98.4804 13.8781C98.3133 13.8644 98.1754 13.8111 98.0666 13.7182C97.9514 13.6247 97.8166 13.494 97.6621 13.3262C97.5077 13.1584 97.3369 12.9537 97.1497 12.712C97.08 12.6158 97.048 12.5324 97.0538 12.4617C97.0595 12.391 97.1046 12.3139 97.1891 12.2302C97.6241 11.8131 98.0141 11.5119 98.359 11.3267C98.4403 11.2816 98.5516 11.2648 98.6929 11.2764C99.1297 11.3121 99.5189 11.179 99.8605 10.8771C100.208 10.5757 100.406 10.0583 100.453 9.32492C100.511 8.53425 100.36 7.96579 100 7.61953C99.6472 7.2738 99.1397 7.0739 98.478 7.01985L98.0155 6.98206C97.5915 6.94742 97.2951 7.01374 97.1263 7.18101C96.9574 7.34829 96.8551 7.65034 96.8194 8.08716L96.0251 17.8098C96.0094 18.0025 95.9566 18.134 95.8668 18.2042C95.7839 18.2686 95.6461 18.2929 95.4534 18.2772L93.401 18.1095C93.2083 18.0937 93.073 18.0471 92.9953 17.9696C92.9245 17.8863 92.897 17.7482 92.9127 17.5555L93.7889 6.83077C93.8414 6.18837 93.9407 5.68561 94.0867 5.32247C94.2397 4.95343 94.4931 4.70252 94.8466 4.56973C95.2072 4.43105 95.7183 4.38874 96.3799 4.44279L98.6733 4.63015C100.517 4.78077 101.852 5.25524 102.68 6.05357C103.507 6.84547 103.86 7.98659 103.739 9.47694C103.647 10.5947 103.338 11.4877 102.812 12.1561C102.291 12.8249 101.645 13.2959 100.872 13.5691C100.106 13.8428 99.3091 13.9458 98.4804 13.8781Z" fill="#F87400"/>
<path d="M108.988 20.6327C107.414 20.2323 106.274 19.4968 105.569 18.4263C104.863 17.3557 104.721 15.9927 105.142 14.3374C105.574 12.6384 106.372 11.4911 107.534 10.8956C108.704 10.2955 110.086 10.198 111.679 10.6032C113.215 10.994 114.34 11.7224 115.053 12.7883C115.768 13.848 115.92 15.1837 115.51 16.7952C115.083 18.4755 114.295 19.6384 113.147 20.284C111.998 20.9296 110.612 21.0458 108.988 20.6327ZM109.658 18.3891C110.345 18.5639 110.918 18.4834 111.376 18.1476C111.835 17.8056 112.197 17.1161 112.46 16.0792C112.711 15.0923 112.71 14.3537 112.455 13.8633C112.209 13.3683 111.739 13.0327 111.046 12.8563C110.377 12.6863 109.794 12.7706 109.295 13.1094C108.805 13.4435 108.435 14.0977 108.188 15.0722C107.929 16.0903 107.928 16.8516 108.185 17.356C108.449 17.862 108.94 18.2064 109.658 18.3891Z" fill="#F87400"/>
<path d="M122.351 16.3701L122.387 16.385C123.35 15.3343 124.411 15.0512 125.571 15.5357C125.72 15.5978 125.838 15.6577 125.925 15.7152C126.016 15.7669 126.076 15.8061 126.107 15.8329C126.184 15.8999 126.2 15.9869 126.155 16.094L125.257 18.2439C125.18 18.4283 125.052 18.4341 124.872 18.2614C124.813 18.2019 124.722 18.1287 124.597 18.0418C124.481 17.9514 124.304 17.8566 124.067 17.7572C123.454 17.5013 122.881 17.5273 122.347 17.8352C121.816 18.1371 121.389 18.6747 121.066 19.4478L119.441 23.3373C119.366 23.5157 119.276 23.6245 119.168 23.6635C119.07 23.6991 118.931 23.6797 118.753 23.6052L116.915 22.8375C116.737 22.7629 116.622 22.6768 116.572 22.5791C116.531 22.4779 116.547 22.3381 116.622 22.1597L119.745 14.684C119.804 14.5413 119.88 14.4437 119.972 14.3912C120.166 14.2769 120.386 14.1695 120.63 14.0691C120.881 13.9711 121.175 13.8774 121.513 13.788C121.575 13.7722 121.633 13.7683 121.685 13.7763C121.738 13.7842 121.782 13.7957 121.818 13.8106C121.901 13.8454 121.972 13.9099 122.03 14.0042C122.362 14.5969 122.569 15.0711 122.651 15.4267C122.675 15.5204 122.667 15.6148 122.627 15.71L122.351 16.3701Z" fill="#F87400"/>
<path d="M127.697 28.2928C125.82 27.2376 125.43 25.7352 126.527 23.7858L128.749 19.8337L127.797 19.2982C127.628 19.2034 127.529 19.1033 127.5 18.998C127.479 18.8902 127.516 18.7521 127.611 18.5835L128.194 17.547C128.289 17.3785 128.386 17.2779 128.486 17.2452C128.594 17.2101 128.733 17.2399 128.901 17.3347L129.853 17.8702L130.616 16.5135C130.692 16.3787 130.779 16.2906 130.876 16.2491C131.286 16.0728 131.819 15.9329 132.476 15.8292C132.587 15.8173 132.673 15.8287 132.734 15.8634C132.802 15.9014 132.853 15.9674 132.889 16.0614C133.027 16.3827 133.131 16.6706 133.202 16.9251C133.279 17.1828 133.332 17.4235 133.362 17.6471C133.377 17.7518 133.347 17.8715 133.271 18.0063L132.508 19.363L133.999 20.2019C134.168 20.2966 134.262 20.3979 134.283 20.5057C134.313 20.611 134.28 20.748 134.185 20.9165L133.602 21.953C133.508 22.1215 133.406 22.2234 133.297 22.2585C133.198 22.2911 133.064 22.2601 132.895 22.1653L131.404 21.3265L129.442 24.8152C128.936 25.714 129.009 26.3467 129.661 26.7132C129.762 26.7701 129.859 26.8138 129.953 26.8443C130.05 26.8692 130.136 26.8878 130.21 26.9001C130.353 26.9215 130.444 26.9505 130.483 26.987C130.527 27.0266 130.537 27.1137 130.514 27.2482L130.268 28.8292C130.239 28.9981 130.149 29.0803 129.996 29.0757C129.89 29.0676 129.644 29.0254 129.258 28.9489C128.874 28.8811 128.354 28.6624 127.697 28.2928Z" fill="#F87400"/>
<path d="M134.831 32.105C134.719 32.2625 134.606 32.3485 134.493 32.3629C134.389 32.3758 134.258 32.3262 134.1 32.2141L132.478 31.0591C132.32 30.947 132.228 30.8377 132.201 30.7314C132.183 30.6235 132.23 30.4908 132.342 30.3333L136.479 24.5206L135.55 23.859C135.393 23.7469 135.305 23.6369 135.287 23.529C135.277 23.4197 135.329 23.2862 135.441 23.1287L136.131 22.1599C136.243 22.0024 136.35 21.9127 136.453 21.8908C136.564 21.8674 136.699 21.9117 136.856 22.0239L137.786 22.6855L138.498 21.6852C138.95 21.0498 139.465 20.5934 140.042 20.316C140.625 20.0423 141.219 19.9354 141.825 19.9951C142.437 20.0585 143.008 20.279 143.538 20.6565C143.785 20.8322 143.964 20.9754 144.075 21.0861C144.191 21.2005 144.266 21.3012 144.299 21.388C144.421 21.6493 144.537 22.0875 144.645 22.7024C144.658 22.8065 144.642 22.8901 144.597 22.9531C144.548 23.0214 144.448 23.0684 144.295 23.0941C144.021 23.1447 143.773 23.1774 143.549 23.192C143.328 23.2013 143.153 23.2031 143.023 23.1973C142.91 23.1885 142.819 23.1669 142.748 23.1326C142.687 23.0967 142.604 23.0414 142.499 22.9666C141.984 22.6003 141.446 22.811 140.886 23.5986L140.275 24.4571L141.7 25.4719C141.858 25.5841 141.941 25.6948 141.95 25.8042C141.969 25.9121 141.922 26.0448 141.809 26.2023L141.12 27.1711C141.008 27.3286 140.896 27.4191 140.784 27.4425C140.682 27.4644 140.551 27.4192 140.394 27.3071L138.968 26.2923L134.831 32.105Z" fill="#F87400"/>
<path d="M140.75 38.0622C139.566 36.9496 138.925 35.7542 138.827 34.476C138.728 33.1978 139.263 31.9364 140.433 30.6921C141.634 29.4148 142.887 28.7971 144.193 28.8389C145.507 28.8805 146.763 29.4642 147.961 30.59C149.116 31.676 149.747 32.8581 149.855 34.136C149.967 35.4093 149.454 36.6516 148.315 37.8632C147.127 39.1263 145.875 39.7623 144.557 39.771C143.24 39.7796 141.97 39.2101 140.75 38.0622ZM142.423 36.4238C142.939 36.9095 143.479 37.1163 144.042 37.0442C144.61 36.9674 145.26 36.5393 145.993 35.7598C146.69 35.0178 147.047 34.3708 147.062 33.8186C147.086 33.2661 146.837 32.7449 146.316 32.2548C145.813 31.7824 145.262 31.5737 144.662 31.6287C144.071 31.6834 143.431 32.077 142.742 32.8095C142.022 33.575 141.653 34.2407 141.634 34.8066C141.62 35.377 141.883 35.9161 142.423 36.4238Z" fill="#F87400"/>
<path d="M146.894 44.5247C146.763 44.4573 146.679 44.4013 146.642 44.3566C146.605 44.3118 146.583 44.2503 146.577 44.1719C146.562 43.9919 146.647 43.7001 146.832 43.2965C147.026 42.8937 147.446 42.4254 148.091 41.8915L156.72 34.7584C156.839 34.6598 156.952 34.6087 157.057 34.605C157.503 34.5877 158.051 34.6489 158.702 34.7885C158.809 34.817 158.885 34.8585 158.93 34.9132C158.984 34.9777 159.01 35.0604 159.01 35.161C159.023 35.5102 159.016 35.8163 158.991 36.0795C158.971 36.3476 158.934 36.5913 158.881 36.8106C158.857 36.9137 158.786 37.0145 158.667 37.113L150.492 43.8704C150.165 44.1415 149.906 44.4008 149.718 44.6485C149.535 44.892 149.404 45.1085 149.327 45.298C149.233 45.518 149.089 45.5822 148.897 45.4907L146.894 44.5247Z" fill="#F87400"/>
<path d="M161.229 39.5304C161.297 39.4823 161.373 39.461 161.455 39.4662C161.538 39.4715 161.645 39.4789 161.777 39.4884C162.05 39.518 162.347 39.5658 162.669 39.6318C162.995 39.6941 163.316 39.7646 163.631 39.8433C163.82 39.8998 163.937 39.9597 163.981 40.0231C164.025 40.0864 164.043 40.2192 164.036 40.4215C163.965 41.1079 163.861 41.7236 163.723 42.2685C163.692 42.3926 163.663 42.496 163.634 42.5789C163.614 42.6634 163.57 42.7297 163.502 42.7777C163.433 42.8258 163.356 42.8445 163.27 42.834C163.187 42.8287 163.075 42.8205 162.934 42.8094C162.67 42.7814 162.377 42.7389 162.054 42.6819C161.736 42.6212 161.422 42.5496 161.113 42.4672C160.998 42.4377 160.915 42.4092 160.864 42.3817C160.819 42.3506 160.783 42.3165 160.757 42.2795C160.731 42.2426 160.712 42.1974 160.698 42.1441C160.693 42.0923 160.693 42.0021 160.697 41.8732C160.718 41.5437 160.757 41.2219 160.812 40.9077C160.873 40.5899 160.938 40.296 161.009 40.0262C161.046 39.8984 161.073 39.7968 161.091 39.7213C161.114 39.6421 161.16 39.5784 161.229 39.5304ZM152.884 49.6438C152.725 49.7546 152.59 49.7979 152.479 49.7737C152.377 49.7509 152.27 49.6604 152.159 49.502L151.017 47.8704C150.906 47.712 150.856 47.5781 150.866 47.4688C150.885 47.3611 150.973 47.2518 151.132 47.1409L158.403 42.0514C158.561 41.9405 158.691 41.8964 158.794 41.9191C158.905 41.9434 159.016 42.0348 159.127 42.1932L160.269 43.8248C160.38 43.9832 160.426 44.1162 160.407 44.224C160.397 44.3333 160.313 44.4434 160.155 44.5542L152.884 49.6438Z" fill="#F87400"/>
<path d="M155.308 57.1562C154.551 55.7192 154.334 54.3803 154.656 53.1395C154.979 51.8987 155.896 50.8803 157.407 50.0843C158.958 49.2672 160.344 49.0909 161.565 49.5551C162.794 50.0221 163.792 50.9827 164.558 52.4368C165.297 53.8396 165.509 55.1628 165.196 56.4063C164.887 57.6468 163.998 58.6545 162.526 59.4295C160.992 60.2375 159.601 60.4313 158.352 60.0109C157.104 59.5904 156.089 58.6389 155.308 57.1562ZM157.423 56.1514C157.754 56.7787 158.197 57.1498 158.753 57.2649C159.314 57.377 160.069 57.1837 161.015 56.6851C161.916 56.2105 162.464 55.7145 162.657 55.1972C162.86 54.6827 162.794 54.1089 162.461 53.4759C162.139 52.8657 161.686 52.489 161.101 52.3457C160.524 52.2051 159.791 52.3691 158.901 52.8377C157.972 53.3273 157.406 53.8366 157.204 54.3656C157.005 54.9003 157.078 55.4956 157.423 56.1514Z" fill="#F87400"/>
<path d="M161.376 71.8852C161.212 71.2418 161.169 70.7307 161.246 70.3522C161.324 69.9798 161.533 69.6876 161.871 69.4753C162.211 69.2693 162.687 69.0887 163.3 68.9333L172.727 66.5411C172.908 66.4951 173.053 66.4915 173.163 66.5302C173.647 66.7067 174.181 66.9901 174.765 67.3804C174.864 67.4551 174.922 67.5268 174.939 67.5955C174.958 67.6704 174.941 67.758 174.886 67.8583C174.719 68.1934 174.549 68.4824 174.378 68.7253C174.213 68.9666 174.048 69.1814 173.883 69.3696C173.799 69.4574 173.67 69.5235 173.495 69.5679L165.183 71.6772C164.764 71.7834 164.483 71.9344 164.34 72.1303C164.197 72.3263 164.178 72.6304 164.283 73.0427L165.022 75.9172C165.06 76.0671 165.064 76.1859 165.033 76.2736C164.961 76.4645 164.87 76.6673 164.758 76.8819C164.646 77.0964 164.506 77.3283 164.336 77.5774C164.271 77.6605 164.213 77.7084 164.163 77.7211C164.107 77.7353 164.036 77.72 163.952 77.6749C163.684 77.5367 163.45 77.4 163.249 77.2647C163.049 77.1294 162.872 76.9948 162.718 76.8609C162.646 76.7862 162.592 76.68 162.557 76.5426L161.376 71.8852Z" fill="white"/>
<path d="M175.969 77.2211C176.052 77.2097 176.129 77.2252 176.2 77.2675C176.271 77.3098 176.363 77.3655 176.476 77.4344C176.705 77.5852 176.948 77.7633 177.204 77.9689C177.466 78.1736 177.719 78.3828 177.963 78.5965C178.106 78.7331 178.182 78.8397 178.193 78.9163C178.203 78.9929 178.159 79.1194 178.059 79.2957C177.683 79.8743 177.31 80.3745 176.938 80.7963C176.854 80.8925 176.78 80.971 176.717 81.0317C176.661 81.0979 176.591 81.1367 176.508 81.1481C176.425 81.1595 176.348 81.1409 176.276 81.0922C176.205 81.0499 176.109 80.9915 175.989 80.917C175.767 80.7718 175.525 80.6 175.264 80.4017C175.009 80.2025 174.763 79.9956 174.525 79.781C174.436 79.7022 174.375 79.6389 174.343 79.5914C174.317 79.5429 174.3 79.4963 174.294 79.4516C174.288 79.4069 174.291 79.3577 174.303 79.304C174.323 79.2558 174.364 79.1754 174.426 79.0627C174.595 78.7792 174.777 78.5104 174.969 78.2562C175.168 78.0011 175.361 77.7698 175.547 77.562C175.638 77.465 175.709 77.387 175.759 77.328C175.816 77.2681 175.886 77.2325 175.969 77.2211ZM163.927 82.4075C163.735 82.4338 163.595 82.4107 163.507 82.3383C163.426 82.2713 163.373 82.142 163.347 81.9504L163.076 79.9774C163.049 79.7858 163.066 79.6437 163.124 79.551C163.191 79.4639 163.319 79.4072 163.511 79.3809L172.304 78.1734C172.495 78.1471 172.631 78.1674 172.712 78.2344C172.8 78.3069 172.857 78.4389 172.884 78.6305L173.155 80.6035C173.181 80.7951 173.161 80.9345 173.095 81.0216C173.036 81.1143 172.911 81.1737 172.719 81.2001L163.927 82.4075Z" fill="white"/>
<path d="M170.098 94.8785L164.453 94.9396C164.259 94.9417 164.124 94.9013 164.045 94.8183C163.974 94.7418 163.937 94.6068 163.935 94.4134L163.913 92.422C163.911 92.2286 163.945 92.0897 164.015 92.0051C164.091 91.9269 164.226 91.8868 164.42 91.8847L169.563 91.829C170.265 91.8214 170.776 91.6676 171.095 91.3677C171.414 91.0677 171.571 90.6632 171.565 90.154C171.56 89.6449 171.446 89.2529 171.224 88.9781C171.002 88.7098 170.722 88.5034 170.386 88.3588L164.382 88.4238C164.189 88.4259 164.053 88.3854 163.975 88.3025C163.903 88.2259 163.866 88.091 163.864 87.8976L163.842 85.9061C163.84 85.7128 163.874 85.5738 163.944 85.4893C164.021 85.4111 164.156 85.371 164.349 85.3689L172.45 85.2812C172.605 85.2795 172.725 85.3104 172.809 85.374C172.991 85.5073 173.176 85.6665 173.365 85.8514C173.554 86.0427 173.757 86.2758 173.972 86.5506C174.038 86.6337 174.071 86.7139 174.072 86.7912C174.072 86.8621 174.041 86.943 173.978 87.034C173.768 87.3069 173.567 87.5412 173.376 87.7366C173.185 87.932 172.987 88.105 172.782 88.2555L172.783 88.3038C172.926 88.4118 173.092 88.5744 173.281 88.7915C173.477 89.0085 173.651 89.3128 173.804 89.7044C173.956 90.1023 174.036 90.6107 174.042 91.2294C174.049 91.8352 173.933 92.4134 173.694 92.9638C173.455 93.5143 173.047 93.9667 172.471 94.321C171.895 94.6818 171.104 94.8676 170.098 94.8785Z" fill="white"/>
<path d="M163.729 101.045C163.538 101.015 163.41 100.953 163.347 100.859C163.288 100.771 163.274 100.632 163.304 100.441L163.608 98.473C163.638 98.2819 163.694 98.1504 163.777 98.0785C163.865 98.0139 164.005 97.9964 164.196 98.0259L177.123 100.027C177.276 100.051 177.389 100.101 177.462 100.178C177.77 100.499 178.089 100.95 178.417 101.529C178.466 101.628 178.486 101.712 178.475 101.782C178.462 101.865 178.418 101.94 178.343 102.006C178.09 102.248 177.857 102.446 177.644 102.603C177.429 102.765 177.223 102.899 177.024 103.006C176.931 103.056 176.808 103.07 176.655 103.046L169.155 101.885L169.138 102C168.988 102.968 169.058 103.651 169.349 104.048C169.645 104.452 170.102 104.703 170.72 104.798L171.236 104.878C171.389 104.902 171.501 104.952 171.574 105.028C171.883 105.35 172.202 105.801 172.529 106.38C172.579 106.479 172.599 106.563 172.588 106.633C172.575 106.716 172.531 106.791 172.455 106.857C172.203 107.099 171.97 107.297 171.757 107.453C171.542 107.616 171.336 107.75 171.137 107.856C171.044 107.907 170.921 107.921 170.768 107.897L170.252 107.817C169.889 107.761 169.499 107.626 169.083 107.411C168.665 107.203 168.316 106.885 168.037 106.457C167.757 106.029 167.643 105.463 167.693 104.76L167.645 104.753C167.327 105.251 166.943 105.665 166.494 105.993C166.046 106.321 165.578 106.582 165.092 106.774C164.612 106.967 164.157 107.102 163.728 107.179C163.304 107.263 162.948 107.306 162.661 107.307C162.381 107.31 162.258 107.196 162.293 106.967L162.682 104.454C162.716 104.237 162.866 104.133 163.132 104.142C163.438 104.144 163.804 104.099 164.229 104.008C164.659 103.925 165.088 103.786 165.516 103.591C165.943 103.403 166.312 103.15 166.622 102.833C166.937 102.523 167.129 102.145 167.198 101.7L167.216 101.585L163.729 101.045Z" fill="white"/>
<path d="M152.282 121.735C152.298 121.65 152.324 121.57 152.358 121.493C152.671 120.786 153.131 120.187 153.737 119.694C154.338 119.199 155.024 118.876 155.796 118.725C156.568 118.574 157.363 118.665 158.181 119C159.059 117.655 160.208 116.79 161.628 116.404C163.05 116.027 164.692 116.251 166.554 117.077C168.81 118.078 170.248 119.375 170.867 120.968C171.492 122.564 171.367 124.346 170.495 126.314C169.676 128.158 168.485 129.374 166.919 129.963C165.359 130.554 163.513 130.377 161.38 129.431C159.495 128.594 158.192 127.551 157.47 126.3C156.755 125.052 156.553 123.672 156.864 122.16C156.341 121.956 155.923 121.943 155.611 122.122C155.291 122.304 155.003 122.579 154.749 122.946C154.665 123.071 154.586 123.162 154.51 123.221C154.433 123.285 154.321 123.337 154.176 123.379C153.767 123.458 153.321 123.486 152.838 123.462C152.705 123.46 152.603 123.443 152.533 123.411C152.427 123.364 152.355 123.262 152.319 123.105C152.257 122.817 152.232 122.548 152.243 122.299C152.246 122.054 152.259 121.866 152.282 121.735ZM159.841 121.408C159.371 122.468 159.402 123.423 159.935 124.273C160.467 125.123 161.34 125.817 162.554 126.355C163.962 126.98 165.127 127.208 166.048 127.038C166.97 126.869 167.668 126.248 168.144 125.175C169.082 123.06 168.158 121.385 165.371 120.148C164.128 119.597 163.011 119.405 162.02 119.572C161.033 119.747 160.307 120.359 159.841 121.408Z" fill="white"/>
<path d="M151.354 131.417C152.669 129.536 154.465 129.393 156.741 130.985L160.771 133.792C160.898 133.881 160.977 133.976 161.009 134.077C161.144 134.502 161.231 135.046 161.27 135.711C161.271 135.821 161.251 135.906 161.21 135.964C161.162 136.033 161.09 136.08 160.993 136.107C160.66 136.212 160.363 136.287 160.102 136.333C159.839 136.385 159.594 136.414 159.368 136.422C159.263 136.426 159.147 136.384 159.02 136.296L155.217 133.636C154.071 132.834 153.18 132.887 152.545 133.795C152.231 134.244 152.136 134.713 152.259 135.2C152.387 135.691 152.721 136.125 153.259 136.502L157.03 139.14C157.157 139.228 157.236 139.323 157.268 139.424C157.403 139.849 157.49 140.394 157.529 141.058C157.53 141.169 157.51 141.253 157.47 141.311C157.422 141.38 157.349 141.427 157.252 141.454C156.919 141.559 156.622 141.635 156.362 141.681C156.098 141.732 155.853 141.761 155.627 141.769C155.522 141.774 155.406 141.732 155.279 141.643L148.403 136.833C148.302 136.762 148.239 136.667 148.213 136.547C148.193 136.43 148.219 136.319 148.293 136.213L149.125 135.025C149.184 134.94 149.248 134.871 149.317 134.817C149.388 134.772 149.478 134.745 149.587 134.735L150.564 134.687L150.603 134.632C150.541 134.462 150.493 134.232 150.46 133.942C150.424 133.657 150.466 133.304 150.586 132.885C150.703 132.471 150.959 131.982 151.354 131.417Z" fill="white"/>
<path d="M156.143 147.178C156.205 147.235 156.243 147.304 156.256 147.385C156.269 147.467 156.286 147.573 156.306 147.704C156.338 147.976 156.357 148.277 156.364 148.605C156.376 148.937 156.379 149.266 156.372 149.59C156.359 149.787 156.326 149.914 156.274 149.971C156.223 150.029 156.097 150.076 155.898 150.113C155.213 150.197 154.59 150.233 154.028 150.22C153.9 150.217 153.793 150.211 153.705 150.201C153.619 150.201 153.544 150.173 153.482 150.116C153.42 150.06 153.385 149.989 153.376 149.903C153.363 149.821 153.346 149.71 153.325 149.57C153.294 149.307 153.27 149.011 153.254 148.684C153.242 148.36 153.242 148.038 153.254 147.718C153.257 147.6 153.267 147.512 153.282 147.457C153.302 147.406 153.328 147.363 153.358 147.33C153.388 147.297 153.428 147.267 153.477 147.242C153.526 147.226 153.614 147.206 153.741 147.181C154.067 147.128 154.389 147.094 154.708 147.078C155.031 147.067 155.332 147.066 155.611 147.075C155.744 147.082 155.849 147.086 155.926 147.087C156.009 147.092 156.081 147.122 156.143 147.178ZM144.428 141.29C144.285 141.16 144.212 141.038 144.211 140.924C144.211 140.82 144.275 140.695 144.405 140.552L145.742 139.076C145.872 138.933 145.991 138.854 146.1 138.839C146.209 138.834 146.335 138.896 146.479 139.026L153.057 144.984C153.2 145.113 153.272 145.231 153.273 145.336C153.274 145.45 153.21 145.578 153.08 145.722L151.743 147.198C151.613 147.341 151.494 147.415 151.384 147.421C151.276 147.435 151.149 147.378 151.006 147.248L144.428 141.29Z" fill="white"/>
<path d="M145.173 153.87C144.6 154.38 144.14 154.702 143.795 154.838C143.453 154.977 143.225 155.051 143.111 155.058C142.945 155.085 142.786 155.071 142.634 155.016C142.553 154.993 142.433 154.936 142.274 154.845C142.115 154.753 141.957 154.639 141.801 154.502C141.67 154.403 141.59 154.319 141.562 154.248C141.539 154.183 141.545 154.069 141.582 153.907C141.629 153.727 141.695 153.544 141.779 153.357C141.862 153.179 141.936 153.04 142.002 152.939C142.057 152.855 142.108 152.801 142.155 152.777C142.202 152.752 142.281 152.734 142.391 152.722C142.515 152.706 142.675 152.668 142.87 152.606C143.07 152.549 143.293 152.411 143.538 152.193C143.851 151.914 144.081 151.572 144.228 151.165C144.37 150.762 144.393 150.328 144.297 149.861C144.196 149.399 143.94 148.936 143.529 148.474C142.912 147.781 142.254 147.404 141.554 147.345C140.85 147.29 140.192 147.535 139.58 148.079C139.267 148.358 139.035 148.62 138.884 148.867C138.737 149.119 138.633 149.332 138.573 149.506C138.523 149.645 138.462 149.721 138.388 149.735C138.314 149.758 138.232 149.749 138.143 149.707L136.556 148.985C136.391 148.907 136.341 148.792 136.404 148.64C136.501 148.39 136.703 148.025 137.009 147.546C137.316 147.066 137.77 146.558 138.372 146.023C139.581 144.947 140.831 144.409 142.123 144.406C143.419 144.409 144.637 145.051 145.777 146.332C146.505 147.15 146.963 147.999 147.149 148.877C147.335 149.755 147.259 150.621 146.922 151.473C146.589 152.33 146.006 153.129 145.173 153.87Z" fill="white"/>
<path d="M132.272 151.643C132.166 151.481 132.127 151.345 132.154 151.234C132.18 151.133 132.274 151.029 132.436 150.923L134.101 149.831C134.263 149.725 134.398 149.679 134.507 149.692C134.614 149.714 134.721 149.806 134.827 149.968L141.998 160.908C142.083 161.037 142.121 161.155 142.113 161.26C142.081 161.705 141.96 162.243 141.75 162.874C141.71 162.978 141.66 163.049 141.601 163.088C141.53 163.134 141.445 163.151 141.345 163.139C140.997 163.113 140.693 163.073 140.435 163.02C140.17 162.969 139.932 162.906 139.72 162.829C139.62 162.794 139.528 162.712 139.443 162.583L135.283 156.236L135.185 156.299C134.366 156.836 133.906 157.346 133.806 157.828C133.704 158.319 133.824 158.825 134.167 159.348L134.453 159.785C134.538 159.914 134.576 160.032 134.568 160.137C134.536 160.582 134.415 161.12 134.205 161.751C134.165 161.854 134.115 161.926 134.056 161.964C133.985 162.01 133.9 162.028 133.8 162.016C133.452 161.99 133.148 161.95 132.89 161.896C132.625 161.846 132.387 161.783 132.175 161.706C132.075 161.671 131.983 161.589 131.898 161.46L131.612 161.023C131.411 160.716 131.25 160.336 131.13 159.882C131.005 159.433 131.008 158.961 131.138 158.467C131.269 157.972 131.612 157.509 132.168 157.075L132.142 157.034C131.558 157.132 130.994 157.124 130.45 157.011C129.905 156.897 129.399 156.724 128.931 156.492C128.466 156.265 128.061 156.018 127.716 155.751C127.37 155.492 127.1 155.257 126.907 155.044C126.717 154.837 126.719 154.67 126.913 154.543L129.04 153.149C129.223 153.029 129.401 153.07 129.572 153.274C129.776 153.502 130.054 153.744 130.406 153.999C130.756 154.263 131.147 154.488 131.578 154.676C132.004 154.867 132.438 154.971 132.882 154.989C133.323 155.016 133.732 154.905 134.11 154.658L134.207 154.594L132.272 151.643Z" fill="white"/>
<path d="M117.05 160.918C117.799 161.521 118.571 162.219 119.364 163.011C120.153 163.812 120.908 164.651 121.629 165.53C122.352 166.414 122.984 167.285 123.528 168.142C124.073 169.005 124.471 169.805 124.722 170.544C124.776 170.703 124.785 170.839 124.749 170.953C124.675 171.196 124.572 171.456 124.441 171.732C124.306 172.016 124.138 172.322 123.936 172.649C123.869 172.753 123.796 172.819 123.717 172.846C123.638 172.873 123.546 172.863 123.442 172.817C123.076 172.682 122.756 172.543 122.482 172.397C122.21 172.258 121.971 172.115 121.764 171.968C121.666 171.899 121.587 171.776 121.527 171.599L121.539 171.636C121.363 171.117 121.08 170.515 120.691 169.831C120.298 169.154 119.839 168.456 119.315 167.735C118.787 167.023 118.233 166.343 117.652 165.697C117.068 165.058 116.494 164.521 115.931 164.086L115.876 164.105C115.658 164.805 115.511 165.584 115.434 166.44C115.353 167.305 115.33 168.177 115.364 169.058C115.391 169.94 115.464 170.766 115.583 171.536C115.698 172.314 115.845 172.968 116.026 173.499L116.016 173.472C116.076 173.649 116.092 173.793 116.062 173.906C115.906 174.408 115.647 174.969 115.286 175.589C115.213 175.695 115.14 175.761 115.067 175.786C115 175.808 114.908 175.799 114.791 175.757C114.438 175.618 114.127 175.475 113.859 175.328C113.594 175.187 113.357 175.042 113.151 174.895C113.056 174.818 112.981 174.697 112.925 174.532C112.737 173.977 112.597 173.306 112.507 172.52C112.413 171.742 112.362 170.901 112.355 169.999C112.347 169.096 112.377 168.18 112.443 167.253C112.508 166.325 112.605 165.427 112.733 164.56C112.862 163.7 113.02 162.921 113.205 162.225C113.359 161.635 113.71 161.247 114.259 161.06L115.522 160.631C116.072 160.444 116.581 160.54 117.05 160.918ZM124.725 170.553L124.722 170.544L124.712 170.516L124.725 170.553ZM112.932 174.551L112.922 174.523L112.925 174.532L112.932 174.551Z" fill="white"/>
<path d="M109.363 174.99C109.379 175.072 109.368 175.15 109.329 175.223C109.291 175.296 109.24 175.391 109.178 175.508C109.039 175.745 108.875 175.996 108.683 176.263C108.493 176.536 108.297 176.8 108.097 177.055C107.968 177.205 107.866 177.287 107.79 177.301C107.714 177.316 107.585 177.278 107.404 177.189C106.806 176.844 106.287 176.498 105.845 176.15C105.745 176.071 105.663 176.001 105.598 175.941C105.529 175.889 105.487 175.822 105.471 175.739C105.455 175.657 105.47 175.579 105.514 175.504C105.553 175.431 105.606 175.333 105.674 175.208C105.807 174.979 105.966 174.728 106.15 174.457C106.335 174.191 106.528 173.934 106.73 173.685C106.804 173.592 106.864 173.528 106.909 173.493C106.956 173.465 107.002 173.446 107.046 173.437C107.091 173.429 107.14 173.429 107.194 173.438C107.243 173.455 107.326 173.492 107.442 173.548C107.734 173.702 108.012 173.868 108.276 174.047C108.542 174.233 108.783 174.413 109 174.587C109.102 174.673 109.184 174.739 109.245 174.786C109.308 174.84 109.348 174.908 109.363 174.99ZM103.538 163.243C103.502 163.053 103.517 162.913 103.585 162.821C103.648 162.737 103.774 162.676 103.964 162.64L105.919 162.263C106.109 162.227 106.252 162.235 106.348 162.289C106.438 162.35 106.502 162.476 106.538 162.666L108.216 171.381C108.252 171.571 108.239 171.708 108.177 171.792C108.109 171.884 107.98 171.948 107.791 171.985L105.835 172.361C105.645 172.398 105.505 172.385 105.414 172.324C105.318 172.27 105.252 172.148 105.216 171.958L103.538 163.243Z" fill="white"/>
<path d="M95.8195 163.377C96.9059 163.298 97.8635 163.402 98.6923 163.691C99.5216 163.986 100.185 164.487 100.682 165.194C101.18 165.901 101.471 166.84 101.556 168.01C101.684 169.764 101.33 171.125 100.496 172.09C99.6614 173.056 98.4984 173.593 97.0071 173.701C96.0364 173.772 95.2042 173.658 94.5104 173.359C93.8101 173.061 93.2642 172.62 92.8726 172.034C92.4746 171.449 92.2471 170.765 92.19 169.98C92.1344 169.215 92.2916 168.668 92.6618 168.337C93.0319 168.006 93.593 167.814 94.3451 167.759L98.4818 167.458C98.3821 166.799 98.1044 166.312 97.6484 165.997C97.186 165.681 96.582 165.551 95.8363 165.605C95.2449 165.648 94.7787 165.769 94.4378 165.968C94.0909 166.175 93.8505 166.334 93.7166 166.447C93.601 166.546 93.4658 166.598 93.3111 166.603C93.1889 166.612 93.0135 166.599 92.7847 166.564C92.5501 166.536 92.3155 166.465 92.0812 166.353C91.9144 166.281 91.8256 166.171 91.8149 166.024C91.8088 165.94 91.8162 165.82 91.8371 165.663C91.8498 165.572 91.8724 165.438 91.9048 165.261C91.9376 165.091 91.984 164.929 92.0439 164.776C92.0774 164.702 92.1335 164.63 92.2124 164.56C92.3344 164.461 92.5347 164.327 92.8132 164.158C93.0853 163.989 93.4649 163.832 93.9519 163.687C94.4384 163.535 95.061 163.432 95.8195 163.377ZM98.6449 169.433L95.5014 169.662C95.1736 169.686 95.0207 169.849 95.0427 170.151C95.0759 170.607 95.2483 170.979 95.5601 171.267C95.8658 171.561 96.3048 171.687 96.8769 171.646C97.5004 171.6 97.9456 171.368 98.2123 170.948C98.4725 170.528 98.6167 170.023 98.6449 169.433Z" fill="white"/>
<path d="M87.2689 164.565C87.419 164.876 87.568 165.3 87.7161 165.838C87.8634 166.382 88.0008 166.98 88.1283 167.632C88.255 168.291 88.3661 168.944 88.4616 169.592C88.5499 170.246 88.6129 170.841 88.6506 171.378C88.6876 171.922 88.6876 172.344 88.6505 172.645C88.6348 172.773 88.5866 172.874 88.506 172.948C88.1668 173.277 87.7009 173.606 87.1083 173.935C87.0045 173.988 86.9142 174.009 86.8374 174C86.7543 173.989 86.6718 173.947 86.5902 173.872C86.3219 173.624 86.1001 173.396 85.9246 173.186C85.7427 172.975 85.5925 172.771 85.4738 172.575C85.4137 172.483 85.3931 172.36 85.412 172.207L85.4061 172.255C85.4549 171.858 85.4889 171.398 85.5079 170.874C85.5206 170.35 85.516 169.807 85.4942 169.246C85.4724 168.685 85.4315 168.147 85.3714 167.633C85.3049 167.119 85.217 166.673 85.1075 166.296L85.05 166.288C84.8395 166.626 84.6061 167.072 84.3497 167.624C84.0932 168.177 83.8425 168.763 83.5974 169.383C83.3451 170.007 83.1167 170.596 82.9122 171.149C82.7078 171.702 82.5563 172.141 82.4577 172.466C82.3822 172.71 82.2626 172.865 82.0988 172.929C81.9286 172.992 81.7028 173.007 81.4213 172.972L80.3083 172.835C79.9884 172.795 79.7672 172.72 79.6447 172.607C79.5158 172.494 79.4491 172.323 79.4447 172.095C79.4361 171.744 79.4009 171.265 79.339 170.66C79.2764 170.061 79.2021 169.426 79.1161 168.753C79.0238 168.079 78.9263 167.447 78.8237 166.856C78.7211 166.266 78.628 165.809 78.5443 165.487L78.4771 165.479C78.2332 165.877 77.9839 166.399 77.7292 167.043C77.4738 167.693 77.246 168.383 77.0458 169.111C76.8457 169.84 76.7062 170.524 76.6274 171.164L76.6321 171.125C76.6132 171.279 76.5667 171.393 76.4925 171.469C76.3233 171.63 76.1281 171.791 75.9069 171.952C75.6858 172.113 75.4215 172.282 75.114 172.458C75.0166 172.511 74.9295 172.533 74.8527 172.523C74.7631 172.512 74.6839 172.47 74.615 172.397C74.3532 172.15 74.1345 171.922 73.9591 171.712C73.7836 171.502 73.6365 171.299 73.5179 171.102C73.4641 171.011 73.4459 170.895 73.4633 170.755C73.5083 170.442 73.6207 170.03 73.8004 169.52C73.9794 169.016 74.203 168.466 74.4714 167.869C74.7333 167.271 75.0177 166.676 75.3244 166.084C75.6247 165.491 75.9251 164.95 76.2256 164.461C76.5197 163.971 76.7849 163.585 77.021 163.303C77.1733 163.12 77.3038 162.984 77.4124 162.893C77.5209 162.802 77.6475 162.75 77.7922 162.735C77.9305 162.72 78.134 162.729 78.4026 162.762L79.4869 162.895C79.7876 162.932 80.0192 163.003 80.1816 163.107C80.3369 163.218 80.47 163.429 80.5809 163.741C80.6492 163.925 80.7225 164.226 80.8008 164.645C80.8783 165.07 80.9547 165.531 81.0299 166.027C81.1044 166.53 81.1668 166.999 81.2171 167.433C81.2675 167.868 81.2964 168.187 81.304 168.389C81.3123 168.585 81.3187 168.823 81.3232 169.102C81.3213 169.381 81.3169 169.602 81.31 169.763L81.358 169.769C81.3841 169.61 81.4333 169.395 81.5056 169.125C81.5706 168.86 81.635 168.628 81.6986 168.428C81.759 168.253 81.8636 167.984 82.0125 167.619C82.1605 167.261 82.3361 166.863 82.5392 166.427C82.7351 165.997 82.9394 165.577 83.1521 165.168C83.3584 164.759 83.5504 164.412 83.7282 164.129C83.9052 163.852 84.0919 163.68 84.2885 163.613C84.4778 163.552 84.7708 163.546 85.1674 163.595L86.2805 163.732C86.594 163.771 86.8024 163.845 86.9057 163.955C87.0026 164.065 87.1237 164.268 87.2689 164.565ZM88.6482 172.664L88.6505 172.645C88.6521 172.632 88.6537 172.619 88.6553 172.606L88.6482 172.664ZM73.4609 170.774L73.4656 170.735L73.4633 170.755C73.4625 170.761 73.4617 170.767 73.4609 170.774Z" fill="white"/>
<path d="M60.0711 161.939C60.2255 162.004 60.3398 162.098 60.4141 162.22C60.4944 162.345 60.5816 162.511 60.6758 162.719C60.77 162.927 60.8683 163.175 60.9706 163.463C61.0067 163.576 61.011 163.665 60.9834 163.73C60.9559 163.796 60.8889 163.855 60.7826 163.908C60.2389 164.168 59.7743 164.332 59.3888 164.4C59.2975 164.418 59.1865 164.399 59.0559 164.344C58.6521 164.173 58.2408 164.178 57.822 164.358C57.3973 164.536 57.048 164.965 56.7741 165.647C56.4717 166.38 56.4372 166.967 56.6706 167.409C56.8981 167.848 57.3177 168.196 57.9293 168.454L58.3568 168.635C58.7487 168.8 59.051 168.83 59.2637 168.724C59.4764 168.618 59.668 168.363 59.8384 167.959L63.6325 158.972C63.7077 158.794 63.7989 158.685 63.9062 158.647C64.005 158.612 64.1435 158.632 64.3216 158.707L66.2188 159.508C66.3969 159.583 66.5108 159.669 66.5604 159.767C66.6016 159.869 66.5845 160.008 66.5093 160.187L62.3243 170.1C62.0736 170.694 61.8221 171.14 61.5698 171.439C61.3091 171.742 60.9901 171.901 60.6127 171.917C60.2269 171.936 59.7282 171.816 59.1166 171.558L56.9967 170.663C55.2926 169.944 54.1724 169.075 53.6363 168.059C53.0976 167.048 53.1191 165.853 53.7006 164.476C54.1368 163.443 54.7095 162.691 55.4187 162.221C56.122 161.748 56.8832 161.503 57.7023 161.485C58.5155 161.464 59.3051 161.616 60.0711 161.939Z" fill="white"/>
<path d="M52.1664 152.21C53.5357 153.084 54.3876 154.139 54.722 155.377C55.0563 156.615 54.7643 157.954 53.8458 159.394C52.903 160.872 51.7864 161.711 50.496 161.913C49.1967 162.116 47.8542 161.776 46.4685 160.892C45.1317 160.039 44.2917 158.995 43.9485 157.759C43.6017 156.529 43.8755 155.213 44.7697 153.811C45.7021 152.349 46.8147 151.492 48.1077 151.239C49.4006 150.985 50.7535 151.309 52.1664 152.21ZM50.8267 154.131C50.2289 153.75 49.6601 153.647 49.1201 153.822C48.5766 154.003 48.0172 154.545 47.4419 155.447C46.8942 156.305 46.6644 157.007 46.7523 157.552C46.8313 158.1 47.1724 158.566 47.7756 158.951C48.357 159.321 48.9375 159.424 49.517 159.259C50.0877 159.095 50.6433 158.589 51.184 157.742C51.749 156.856 51.9883 156.133 51.9018 155.574C51.81 155.01 51.4516 154.53 50.8267 154.131Z" fill="white"/>
<path d="M38.1276 152.071L38.0984 152.046C36.8557 152.744 35.7591 152.681 34.8085 151.859C34.6867 151.754 34.593 151.66 34.5277 151.578C34.4581 151.501 34.4129 151.445 34.3921 151.41C34.3401 151.322 34.352 151.234 34.4279 151.147L35.9521 149.384C36.0828 149.233 36.2064 149.268 36.3229 149.488C36.3603 149.563 36.4245 149.661 36.5156 149.782C36.5975 149.904 36.736 150.05 36.931 150.218C37.4331 150.652 37.9857 150.807 38.5889 150.681C39.1879 150.56 39.7615 150.182 40.3096 149.549L43.0671 146.36C43.1936 146.214 43.3138 146.139 43.4278 146.135C43.5327 146.132 43.6582 146.194 43.8045 146.321L45.3108 147.624C45.457 147.75 45.5387 147.867 45.5557 147.976C45.5636 148.085 45.5043 148.213 45.3778 148.359L40.0778 154.487C39.9766 154.604 39.8742 154.673 39.7707 154.694C39.5502 154.742 39.3082 154.775 39.0445 154.795C38.776 154.809 38.4674 154.807 38.1186 154.786C38.0543 154.782 37.9985 154.767 37.951 154.743C37.9036 154.719 37.8653 154.695 37.836 154.67C37.7678 154.611 37.7206 154.527 37.6945 154.419C37.564 153.753 37.5152 153.237 37.5483 152.874C37.555 152.778 37.5921 152.69 37.6596 152.612L38.1276 152.071Z" fill="white"/>
<path d="M36.7833 139.101C38.2391 140.687 38.1432 142.236 36.4956 143.748L33.1552 146.814L33.894 147.619C34.0247 147.762 34.0878 147.888 34.0831 147.997C34.0693 148.106 33.9912 148.226 33.8488 148.356L32.9727 149.16C32.8303 149.291 32.7066 149.357 32.6017 149.357C32.4877 149.356 32.3653 149.285 32.2345 149.143L31.4957 148.338L30.349 149.39C30.2351 149.495 30.1255 149.552 30.0201 149.561C29.5759 149.601 29.0254 149.569 28.3684 149.463C28.2599 149.44 28.1817 149.403 28.1338 149.35C28.0815 149.293 28.0529 149.215 28.0481 149.114C28.0174 148.766 28.0076 148.46 28.0189 148.196C28.0259 147.927 28.0501 147.682 28.0915 147.46C28.1096 147.356 28.1757 147.251 28.2896 147.147L29.4363 146.094L28.2791 144.834C28.1484 144.691 28.0899 144.565 28.1037 144.457C28.1083 144.347 28.1819 144.227 28.3243 144.097L29.2004 143.292C29.3428 143.162 29.4711 143.096 29.5851 143.097C29.69 143.097 29.8079 143.168 29.9386 143.31L31.0958 144.571L34.0444 141.864C34.8041 141.167 34.9312 140.543 34.4256 139.992C34.3471 139.907 34.2681 139.835 34.1885 139.777C34.1041 139.723 34.0284 139.679 33.9615 139.644C33.832 139.579 33.7546 139.523 33.7292 139.476C33.6995 139.425 33.7168 139.339 33.7813 139.219L34.506 137.792C34.5855 137.64 34.6971 137.59 34.8409 137.642C34.9395 137.683 35.1603 137.8 35.5033 137.992C35.8467 138.176 36.2734 138.545 36.7833 139.101Z" fill="white"/>
<path d="M31.1766 133.252C31.3321 133.137 31.4658 133.09 31.5778 133.112C31.6808 133.132 31.7898 133.22 31.9047 133.375L33.0886 134.977C33.2035 135.132 33.2574 135.265 33.2502 135.374C33.234 135.482 33.1481 135.594 32.9926 135.709L27.2551 139.95L27.9333 140.867C28.0482 141.023 28.0976 141.155 28.0814 141.263C28.0561 141.37 27.9658 141.481 27.8103 141.596L26.854 142.302C26.6985 142.417 26.5686 142.469 26.4643 142.458C26.3509 142.446 26.2368 142.362 26.1218 142.206L25.4437 141.289L24.4563 142.019C23.8292 142.483 23.1982 142.757 22.5634 142.841C21.9248 142.921 21.3265 142.838 20.7688 142.593C20.2072 142.343 19.7329 141.956 19.3459 141.432C19.1659 141.189 19.0402 140.997 18.969 140.857C18.8939 140.713 18.8542 140.594 18.8496 140.501C18.8142 140.214 18.8406 139.762 18.9287 139.144C18.9487 139.041 18.9898 138.966 19.052 138.921C19.1194 138.871 19.2297 138.857 19.383 138.88C19.6586 138.917 19.9051 138.963 20.1226 139.019C20.3349 139.078 20.5021 139.131 20.6242 139.177C20.7284 139.22 20.8086 139.269 20.8649 139.324C20.9123 139.377 20.9742 139.455 21.0509 139.559C21.4263 140.067 22.0028 140.033 22.7802 139.459L23.6276 138.832L22.5874 137.425C22.4725 137.27 22.4276 137.139 22.4529 137.032C22.4691 136.924 22.5549 136.812 22.7104 136.697L23.6667 135.99C23.8222 135.875 23.9566 135.824 24.0699 135.836C24.1743 135.847 24.2839 135.931 24.3989 136.086L25.4391 137.493L31.1766 133.252Z" fill="white"/>
<path d="M27.4067 125.763C28.1858 127.188 28.4236 128.523 28.1203 129.769C27.8169 131.014 26.9158 132.047 25.4171 132.866C23.8788 133.707 22.4958 133.905 21.2681 133.459C20.0316 133.011 19.0192 132.066 18.2308 130.624C17.4703 129.233 17.2374 127.913 17.532 126.665C17.821 125.42 18.695 124.399 20.1542 123.601C21.6755 122.769 23.0636 122.554 24.3186 122.955C25.5736 123.356 26.603 124.292 27.4067 125.763ZM25.3074 126.8C24.9674 126.178 24.5185 125.814 23.9608 125.707C23.3974 125.604 22.6463 125.809 21.7075 126.322C20.814 126.81 20.2743 127.315 20.0886 127.835C19.8941 128.352 19.9684 128.925 20.3116 129.553C20.6424 130.158 21.1016 130.528 21.6891 130.662C22.2679 130.794 22.9985 130.618 23.8807 130.136C24.8026 129.632 25.3605 129.114 25.5544 128.582C25.7453 128.044 25.663 127.45 25.3074 126.8Z" fill="white"/>
<path d="M23.5746 117.696C23.678 117.801 23.7402 117.88 23.7614 117.934C23.7825 117.988 23.7839 118.054 23.7654 118.13C23.7234 118.306 23.5516 118.556 23.2501 118.882C22.9402 119.204 22.3951 119.518 21.6149 119.824L11.1905 123.907C11.0465 123.963 10.9237 123.977 10.8222 123.947C10.3934 123.825 9.89175 123.595 9.31726 123.26C9.22433 123.199 9.16494 123.136 9.13909 123.07C9.10853 122.992 9.10915 122.905 9.14096 122.81C9.23793 122.474 9.33935 122.185 9.44522 121.943C9.54874 121.695 9.65983 121.475 9.77851 121.283C9.83302 121.192 9.93229 121.119 10.0763 121.062L19.9516 117.194C20.3477 117.039 20.6738 116.873 20.93 116.697C21.1802 116.523 21.3717 116.358 21.5045 116.202C21.6626 116.022 21.8189 116.006 21.9735 116.153L23.5746 117.696Z" fill="white"/>
<path d="M9.36064 117.692C9.28042 117.716 9.20201 117.713 9.12542 117.682C9.04883 117.651 8.94908 117.611 8.82617 117.56C8.57662 117.447 8.30945 117.309 8.02465 117.145C7.73369 116.984 7.45105 116.817 7.17674 116.644C7.01485 116.531 6.92276 116.437 6.90044 116.363C6.87813 116.289 6.90235 116.158 6.97312 115.968C7.25448 115.338 7.54582 114.786 7.84713 114.311C7.91553 114.203 7.97623 114.114 8.02924 114.044C8.07421 113.97 8.13682 113.921 8.21704 113.897C8.29727 113.873 8.3766 113.879 8.45505 113.916C8.53164 113.947 8.63541 113.989 8.76635 114.044C9.00787 114.153 9.27318 114.285 9.56229 114.441C9.84522 114.598 10.1208 114.764 10.3889 114.939C10.489 115.003 10.5588 115.056 10.5984 115.098C10.6318 115.142 10.655 115.185 10.668 115.228C10.681 115.271 10.6857 115.32 10.6821 115.375C10.6704 115.426 10.6424 115.512 10.5981 115.633C10.475 115.939 10.338 116.233 10.1871 116.514C10.03 116.797 9.87567 117.056 9.72408 117.29C9.64952 117.4 9.5919 117.488 9.55124 117.554C9.5044 117.622 9.44087 117.668 9.36064 117.692ZM20.4497 110.696C20.6348 110.64 20.7765 110.641 20.8747 110.699C20.9649 110.752 21.0379 110.872 21.0937 111.057L21.6683 112.964C21.7241 113.149 21.7301 113.292 21.6864 113.392C21.6346 113.489 21.5162 113.565 21.3311 113.621L12.8333 116.181C12.6481 116.237 12.5105 116.238 12.4203 116.185C12.322 116.127 12.245 116.005 12.1892 115.82L11.6146 113.913C11.5589 113.728 11.5568 113.587 11.6086 113.491C11.6523 113.39 11.7667 113.312 11.9518 113.256L20.4497 110.696Z" fill="white"/>
<path d="M19.5395 103.068C19.8074 104.67 19.5935 106.01 18.898 107.087C18.2024 108.164 17.0123 108.843 15.3277 109.125C13.5986 109.414 12.2273 109.147 11.2139 108.323C10.193 107.494 9.54706 106.269 9.27597 104.648C9.01444 103.084 9.22775 101.761 9.91589 100.679C10.5977 99.5973 11.7586 98.9196 13.3987 98.6453C15.1088 98.3593 16.4906 98.6118 17.5443 99.4028C18.598 100.194 19.2631 101.416 19.5395 103.068ZM17.2159 103.359C17.099 102.66 16.7946 102.168 16.3028 101.885C15.8046 101.602 15.0279 101.549 13.9726 101.725C12.9682 101.893 12.2929 102.192 11.9466 102.623C11.593 103.048 11.4751 103.613 11.5931 104.319C11.7069 104.999 12.0192 105.499 12.5301 105.819C13.0336 106.133 13.7812 106.207 14.7729 106.042C15.8091 105.868 16.5061 105.562 16.864 105.123C17.2209 104.678 17.3382 104.09 17.2159 103.359Z" fill="white"/>
<path d="M23.4139 80.5021C23.4245 80.5875 23.4255 80.6718 23.4169 80.7551C23.3372 81.5245 23.0852 82.2371 22.6609 82.8929C22.2429 83.5495 21.6902 84.0689 21.0026 84.4513C20.315 84.8336 19.5308 84.9921 18.6498 84.9268C18.23 86.4774 17.4049 87.6555 16.1745 88.4611C14.9384 89.2597 13.3074 89.554 11.2815 89.3442C8.82611 89.0899 7.05786 88.3008 5.97676 86.9771C4.88926 85.6528 4.45641 83.92 4.67821 81.7787C4.88606 79.772 5.64343 78.2467 6.95033 77.2028C8.25081 76.1582 10.0614 75.756 12.3822 75.9964C14.4338 76.2089 15.9959 76.7984 17.0686 77.7649C18.135 78.7306 18.7539 79.9806 18.9255 81.5146C19.4859 81.5467 19.8868 81.4295 20.1283 81.1629C20.3768 80.8906 20.5653 80.5408 20.6938 80.1135C20.7347 79.9687 20.7819 79.8569 20.8354 79.7782C20.8896 79.6931 20.9794 79.6085 21.1047 79.5242C21.4691 79.3222 21.8846 79.1579 22.3513 79.0313C22.4784 78.9926 22.5805 78.9773 22.6574 78.9852C22.7728 78.9972 22.8719 79.0723 22.9548 79.2104C23.1033 79.4656 23.2105 79.7132 23.2764 79.9533C23.3493 80.1876 23.3952 80.3706 23.4139 80.5021ZM16.3261 83.1504C16.4456 81.9964 16.1208 81.0977 15.3515 80.4543C14.5823 79.8109 13.5373 79.4208 12.2167 79.284C10.6844 79.1253 9.50643 79.2689 8.68265 79.7149C7.85888 80.161 7.38656 80.9674 7.2657 82.1342C7.0273 84.4357 8.42431 85.7435 11.4567 86.0576C12.8094 86.1978 13.9311 86.0353 14.8216 85.5703C15.7064 85.0982 16.2079 84.2916 16.3261 83.1504Z" fill="white"/>
<path d="M21.2958 71.029C20.6258 73.2235 18.9623 73.9152 16.3055 73.104L11.6054 71.6791C11.4575 71.6339 11.3528 71.5683 11.2915 71.4821C11.0315 71.1197 10.7805 70.6286 10.5384 70.0088C10.5031 69.9037 10.4958 69.8173 10.5165 69.7495C10.541 69.6693 10.5954 69.6017 10.6796 69.5465C10.9639 69.3436 11.2228 69.18 11.4561 69.0558C11.6914 68.9255 11.9151 68.8219 12.1272 68.7452C12.2261 68.708 12.3496 68.712 12.4975 68.7571L16.9359 70.1123C18.2736 70.5207 19.1043 70.1948 19.428 69.1345C19.588 68.6105 19.5341 68.1358 19.2664 67.7104C18.9925 67.2831 18.5412 66.9734 17.9124 66.7815L13.5111 65.4376C13.3631 65.3925 13.2585 65.3268 13.1972 65.2407C12.9372 64.8783 12.6862 64.3872 12.4441 63.7674C12.4088 63.6623 12.4015 63.5758 12.4222 63.508C12.4467 63.4279 12.501 63.3602 12.5853 63.3051C12.8696 63.1021 13.1285 62.9386 13.3618 62.8144C13.597 62.684 13.8207 62.5805 14.0329 62.5037C14.1318 62.4665 14.2553 62.4705 14.4032 62.5157L22.4292 64.9663C22.5464 65.002 22.6358 65.0731 22.6977 65.1796C22.7533 65.2842 22.7623 65.3982 22.7247 65.5215L22.3012 66.9084C22.2711 67.0071 22.2315 67.0927 22.1824 67.1653C22.129 67.2299 22.0518 67.2838 21.951 67.3272L21.0362 67.6746L21.0165 67.7393C21.1281 67.8812 21.2444 68.0852 21.3654 68.3513C21.4882 68.6112 21.5572 68.9591 21.5723 69.395C21.5894 69.8248 21.4972 70.3694 21.2958 71.029Z" fill="white"/>
<path d="M11.8688 57.5341C11.7924 57.4997 11.7353 57.4458 11.6977 57.3723C11.6601 57.2988 11.6115 57.2027 11.5518 57.084C11.4378 56.8348 11.3269 56.5552 11.219 56.2451C11.1053 55.9324 11.0017 55.6208 10.9082 55.3101C10.86 55.1188 10.8518 54.9879 10.8835 54.9174C10.9153 54.8468 11.0201 54.7632 11.1978 54.6665C11.8235 54.3756 12.4057 54.1499 12.9444 53.9894C13.0669 53.9527 13.1711 53.9254 13.2569 53.9075C13.3395 53.881 13.419 53.885 13.4954 53.9194C13.5718 53.9537 13.6275 54.0106 13.6625 54.09C13.7001 54.1634 13.7504 54.2638 13.8132 54.391C13.924 54.6317 14.0376 54.9055 14.154 55.2123C14.2645 55.5165 14.3635 55.8225 14.4511 56.1305C14.4846 56.2445 14.5025 56.3304 14.5049 56.388C14.5014 56.4429 14.4903 56.491 14.4718 56.5321C14.4533 56.5733 14.4247 56.6134 14.3859 56.6525C14.3438 56.683 14.2664 56.7294 14.1535 56.7918C13.8597 56.9422 13.5636 57.074 13.2653 57.1872C12.9611 57.2977 12.675 57.3916 12.407 57.4688C12.2786 57.5029 12.1773 57.5316 12.1033 57.5548C12.0234 57.5754 11.9452 57.5685 11.8688 57.5341ZM24.828 59.528C25.0044 59.6073 25.1106 59.7011 25.1467 59.8092C25.1797 59.9088 25.1564 60.0468 25.0771 60.2231L24.2598 62.0393C24.1805 62.2157 24.0913 62.3275 23.9922 62.3748C23.89 62.4136 23.7507 62.3933 23.5743 62.314L15.4809 58.6719C15.3045 58.5925 15.1999 58.503 15.167 58.4034C15.1308 58.2952 15.1524 58.153 15.2318 57.9767L16.0491 56.1605C16.1284 55.9842 16.2192 55.8766 16.3215 55.8378C16.4206 55.7905 16.5582 55.8065 16.7346 55.8859L24.828 59.528Z" fill="white"/>
<path d="M20.2655 47.7653C20.6545 47.1042 20.9927 46.6564 21.2803 46.4218C21.5624 46.1839 21.7568 46.0441 21.8637 46.0023C22.0134 45.9258 22.1689 45.8902 22.3304 45.8955C22.4144 45.8925 22.5461 45.9102 22.7255 45.9485C22.9049 45.9867 23.09 46.047 23.2808 46.1294C23.436 46.1833 23.5377 46.2394 23.5857 46.2976C23.6282 46.3525 23.6568 46.4628 23.6714 46.6284C23.6819 46.8141 23.6758 47.0087 23.6532 47.2123C23.6284 47.407 23.6004 47.5626 23.5694 47.6789C23.5426 47.7753 23.5105 47.8425 23.4733 47.8804C23.436 47.9183 23.3667 47.9598 23.2654 48.0048C23.152 48.0578 23.0118 48.1435 22.8448 48.2621C22.6723 48.3775 22.5026 48.5768 22.3359 48.8601C22.1235 49.2212 22.0097 49.6179 21.9946 50.0502C21.9828 50.477 22.0942 50.8978 22.3288 51.3125C22.5667 51.7217 22.9522 52.0832 23.4855 52.3969C24.2854 52.8676 25.0274 53.0237 25.7114 52.8653C26.3987 52.7013 26.9498 52.2666 27.3649 51.5611C27.5774 51.2 27.7178 50.8788 27.7861 50.5975C27.8489 50.3128 27.8822 50.0782 27.8862 49.8936C27.8905 49.7465 27.9256 49.655 27.9916 49.6191C28.0553 49.5743 28.1359 49.5581 28.2333 49.5706L29.9661 49.7712C30.1464 49.7951 30.2296 49.8889 30.2155 50.0526C30.2001 50.3203 30.1202 50.7294 29.9757 51.28C29.8312 51.8307 29.5547 52.4532 29.1461 53.1475C28.3257 54.5419 27.3009 55.4383 26.0718 55.8369C24.8372 56.2321 23.481 55.9951 22.0034 55.1256C21.059 54.57 20.3635 53.9028 19.9169 53.124C19.4702 52.3452 19.2767 51.4984 19.3363 50.5838C19.3903 49.6658 19.7001 48.7263 20.2655 47.7653Z" fill="white"/>
<path d="M33.2235 45.9358C33.374 46.0572 33.453 46.1748 33.4606 46.2886C33.4672 46.3933 33.4099 46.5209 33.2885 46.6714L32.038 48.2215C31.9166 48.372 31.802 48.4576 31.6942 48.4783C31.5854 48.4899 31.4558 48.435 31.3053 48.3136L21.1243 40.1006C21.0039 40.0035 20.9313 39.9036 20.9066 39.8008C20.8006 39.3675 20.751 38.8182 20.7578 38.1529C20.7642 38.0422 20.7897 37.9593 20.8343 37.9041C20.8869 37.8389 20.9625 37.7964 21.0613 37.7767C21.4008 37.6945 21.702 37.6393 21.9649 37.6112C22.2317 37.5781 22.4779 37.5655 22.7033 37.5735C22.809 37.5759 22.9221 37.6257 23.0425 37.7228L28.9494 42.4879L29.0223 42.3976C29.6374 41.6351 29.9188 41.0091 29.8664 40.5197C29.8131 40.0212 29.5431 39.5757 29.0565 39.1832L28.6501 38.8554C28.5297 38.7583 28.4572 38.6583 28.4324 38.5555C28.3265 38.1223 28.2769 37.573 28.2836 36.9076C28.2901 36.7969 28.3156 36.714 28.3601 36.6588C28.4127 36.5936 28.4884 36.5511 28.5871 36.5314C28.9267 36.4492 29.2279 36.3941 29.4907 36.366C29.7576 36.3328 30.0038 36.3203 30.2292 36.3282C30.3349 36.3307 30.4479 36.3804 30.5683 36.4776L30.9747 36.8054C31.2606 37.036 31.5301 37.3487 31.7832 37.7433C32.0403 38.1329 32.1824 38.5829 32.2095 39.0933C32.2366 39.6038 32.0522 40.1506 31.6563 40.7339L31.6939 40.7642C32.2194 40.4925 32.7586 40.3271 33.3115 40.268C33.8643 40.2088 34.3993 40.2181 34.9164 40.2957C35.4284 40.3692 35.8895 40.4803 36.2996 40.6289C36.7087 40.7685 37.0378 40.9098 37.2869 41.0527C37.5309 41.1916 37.5801 41.3513 37.4344 41.5319L35.8379 43.511C35.7003 43.6815 35.5186 43.6964 35.2927 43.5555C35.0286 43.4005 34.6899 43.2556 34.2768 43.1211C33.8626 42.9775 33.4216 42.8826 32.9538 42.8364C32.4899 42.7852 32.0444 42.8191 31.6171 42.9381C31.1888 43.0481 30.8331 43.2787 30.5498 43.6299L30.477 43.7202L33.2235 45.9358Z" fill="white"/>
<path d="M45.4654 33.2229C44.5663 32.8807 43.6172 32.4553 42.6179 31.9467C41.6199 31.429 40.6427 30.8636 39.6862 30.2507C38.7258 29.6325 37.8551 28.9997 37.0739 28.3523C36.289 27.6997 35.6631 27.061 35.1965 26.4361C35.0962 26.3018 35.0456 26.1748 35.0445 26.0549C35.0399 25.8009 35.0572 25.5225 35.0965 25.2197C35.1371 24.9078 35.2029 24.565 35.2939 24.1914C35.3251 24.0716 35.3743 23.9866 35.4414 23.9365C35.5085 23.8863 35.5988 23.8672 35.7122 23.879C36.1015 23.894 36.4488 23.9282 36.7542 23.9817C37.0558 24.03 37.3276 24.0925 37.5698 24.169C37.6845 24.2041 37.7977 24.2965 37.9096 24.4462L37.8864 24.4152C38.2142 24.8542 38.6689 25.3392 39.2505 25.8702C39.8334 26.3921 40.4852 26.9149 41.206 27.4385C41.9281 27.953 42.6651 28.4283 43.417 28.8642C44.1703 29.2912 44.8818 29.6246 45.5516 29.8644L45.5981 29.8297C45.5893 29.0962 45.489 28.3103 45.2974 27.472C45.1071 26.6247 44.86 25.7876 44.5562 24.9607C44.2576 24.1299 43.933 23.3668 43.5825 22.6712C43.2333 21.9667 42.891 21.3898 42.5555 20.9405L42.5728 20.9637C42.461 20.814 42.402 20.6811 42.3958 20.565C42.3891 20.0391 42.4619 19.4256 42.6142 18.7247C42.6505 18.601 42.6997 18.5161 42.7617 18.4698C42.8185 18.4274 42.9087 18.4082 43.0325 18.4123C43.4114 18.435 43.751 18.475 44.0512 18.5324C44.3476 18.5845 44.6169 18.6489 44.8591 18.7255C44.9724 18.7695 45.0812 18.8613 45.1853 19.0007C45.5362 19.4706 45.876 20.0656 46.2045 20.7856C46.5343 21.4965 46.8421 22.2803 47.1278 23.1368C47.4135 23.9933 47.6682 24.873 47.8919 25.7758C48.1157 26.6786 48.3008 27.562 48.4472 28.426C48.5898 29.2848 48.6804 30.0739 48.7188 30.7933C48.755 31.4018 48.5407 31.8796 48.0759 32.2267L47.0069 33.025C46.5421 33.3721 46.0283 33.438 45.4654 33.2229ZM35.1907 26.4284L35.1965 26.4361L35.2139 26.4593L35.1907 26.4284ZM45.1737 18.9852L45.1911 19.0085L45.1853 19.0007L45.1737 18.9852Z" fill="white"/>
<path d="M47.7779 16.6918C47.7373 16.6185 47.724 16.5411 47.7379 16.4598C47.7518 16.3784 47.7704 16.2723 47.7938 16.1415C47.8517 15.8737 47.9304 15.5833 48.0298 15.2704C48.126 14.9519 48.2298 14.6403 48.341 14.3356C48.417 14.1536 48.4889 14.0438 48.5565 14.0063C48.6242 13.9689 48.7582 13.9647 48.9584 13.9938C49.6337 14.1356 50.2351 14.3036 50.7625 14.4978C50.8827 14.5418 50.9825 14.5823 51.0619 14.6194C51.1439 14.6477 51.2052 14.6985 51.2458 14.7718C51.2863 14.8451 51.2969 14.924 51.2773 15.0085C51.2635 15.0898 51.2436 15.2003 51.2177 15.3399C51.1622 15.5989 51.0892 15.8862 50.9986 16.2016C50.9049 16.5113 50.8008 16.8157 50.6865 17.1148C50.645 17.2262 50.6079 17.3056 50.5753 17.3532C50.5396 17.3951 50.502 17.4269 50.4625 17.4488C50.423 17.4706 50.376 17.4856 50.3216 17.4936C50.2696 17.4929 50.1798 17.4837 50.0521 17.466C49.7266 17.4105 49.4106 17.3386 49.104 17.2506C48.7942 17.1568 48.5089 17.0606 48.248 16.962C48.1247 16.9123 48.0265 16.8746 47.9533 16.8489C47.877 16.8174 47.8185 16.7651 47.7779 16.6918ZM56.9604 26.0513C57.054 26.2205 57.083 26.3592 57.0471 26.4674C57.0138 26.5669 56.9125 26.6635 56.7434 26.7571L55.001 27.7218C54.8319 27.8155 54.6934 27.8516 54.5858 27.8302C54.4807 27.8 54.3813 27.7003 54.2876 27.5311L49.9887 19.7666C49.895 19.5974 49.8648 19.4631 49.8982 19.3636C49.934 19.2553 50.0365 19.1544 50.2057 19.0607L51.948 18.096C52.1172 18.0024 52.2543 17.9707 52.3595 18.0009C52.4671 18.0223 52.5678 18.1176 52.6614 18.2868L56.9604 26.0513Z" fill="white"/>
<path d="M64.3149 23.5079C63.306 23.9187 62.3629 24.1148 61.4855 24.0963C60.6056 24.0718 59.82 23.8002 59.1285 23.2815C58.4371 22.7627 57.8702 21.9601 57.4278 20.8737C56.7642 19.244 56.6801 17.8412 57.1755 16.6652C57.671 15.4892 58.6111 14.6192 59.996 14.0553C60.8974 13.6882 61.7241 13.5395 62.4762 13.609C63.2342 13.6762 63.8899 13.9276 64.4432 14.3635C65.0024 14.7969 65.4303 15.3777 65.7268 16.106C66.0161 16.8163 66.0358 17.3859 65.7859 17.8147C65.536 18.2436 65.0619 18.6002 64.3634 18.8846L60.5221 20.4488C60.8203 21.0442 61.2349 21.4216 61.7661 21.5811C62.3033 21.7382 62.9181 21.6757 63.6106 21.3937C64.1598 21.1701 64.5657 20.9109 64.8284 20.616C65.0946 20.3127 65.2739 20.0866 65.3664 19.9376C65.4457 19.8079 65.5583 19.7168 65.704 19.6644C65.8174 19.6183 65.9883 19.5765 66.2167 19.5392C66.4486 19.4935 66.6933 19.4878 66.9509 19.5221C67.1317 19.5389 67.2501 19.616 67.306 19.7533C67.3376 19.8309 67.3676 19.9474 67.3961 20.1028C67.4122 20.1937 67.4322 20.3282 67.4561 20.5064C67.4775 20.6786 67.4833 20.8467 67.4735 21.0108C67.4645 21.091 67.4333 21.1768 67.38 21.2681C67.2946 21.4003 67.1456 21.5897 66.9329 21.8364C66.7261 22.0806 66.4136 22.3471 65.9953 22.6357C65.5794 22.9303 65.0193 23.221 64.3149 23.5079ZM59.7568 18.6205L62.6758 17.4319C62.9802 17.3079 63.0753 17.1056 62.9611 16.8251C62.7885 16.4012 62.5096 16.1007 62.1243 15.9236C61.7425 15.7381 61.286 15.7534 60.7547 15.9698C60.1757 16.2056 59.8242 16.5644 59.7003 17.0463C59.5824 17.5258 59.6012 18.0505 59.7568 18.6205Z" fill="white"/>
<path d="M71.9575 19.7796C71.7192 19.53 71.447 19.1721 71.1409 18.7058C70.8336 18.2332 70.5191 17.7062 70.1975 17.1248C69.8746 16.537 69.5682 15.9494 69.2782 15.3619C68.9933 14.7669 68.7504 14.2196 68.5494 13.72C68.3473 13.214 68.2177 12.8123 68.1605 12.5148C68.1362 12.3883 68.151 12.2771 68.2048 12.1815C68.4267 11.7648 68.769 11.3086 69.2317 10.8128C69.3145 10.7313 69.3938 10.6832 69.4698 10.6686C69.5521 10.6528 69.6436 10.6681 69.7444 10.7144C70.0757 10.8673 70.357 11.0168 70.5885 11.1627C70.8263 11.3073 71.0318 11.4549 71.2051 11.6054C71.2905 11.6743 71.3478 11.7847 71.377 11.9367L71.3679 11.8892C71.4432 12.2816 71.5523 12.7299 71.695 13.2341C71.8441 13.7371 72.0152 14.2523 72.2083 14.7796C72.4015 15.307 72.6056 15.8059 72.8206 16.2766C73.042 16.746 73.2627 17.1433 73.4827 17.4686L73.5396 17.4577C73.6362 17.0716 73.7215 16.5761 73.7957 15.9712C73.8699 15.3663 73.9285 14.7316 73.9715 14.067C74.0197 13.3949 74.0561 12.7644 74.0809 12.1755C74.1057 11.5867 74.1149 11.1222 74.1087 10.7821C74.1056 10.5267 74.1721 10.3433 74.3082 10.2319C74.4507 10.1192 74.6611 10.0361 74.9396 9.98267L76.041 9.7712C76.3575 9.71044 76.5913 9.71477 76.7425 9.78419C76.9 9.8524 77.0158 9.99423 77.09 10.2097C77.2062 10.5418 77.3867 10.9862 77.6315 11.543C77.875 12.0935 78.141 12.6758 78.4296 13.2898C78.7244 13.9026 79.0114 14.4743 79.2904 15.0048C79.5695 15.5353 79.7983 15.941 79.9769 16.2217L80.0434 16.209C80.1531 15.7547 80.2302 15.1821 80.2747 14.491C80.318 13.7935 80.3229 13.0674 80.2896 12.3125C80.2562 11.5576 80.1787 10.8636 80.0572 10.2307L80.0645 10.2686C80.0353 10.1167 80.0445 9.99354 80.092 9.8991C80.2036 9.69392 80.3398 9.48071 80.5008 9.25947C80.6618 9.03824 80.8615 8.79644 81.0999 8.53409C81.1763 8.45378 81.2525 8.40633 81.3285 8.39174C81.4171 8.37473 81.5055 8.39058 81.5936 8.43929C81.9185 8.59348 82.1967 8.74352 82.4282 8.88941C82.6597 9.03529 82.862 9.18348 83.0353 9.33398C83.1144 9.40411 83.1673 9.5088 83.1941 9.64806C83.2473 9.95943 83.2667 10.3856 83.2525 10.9265C83.237 11.4611 83.1932 12.0536 83.1212 12.704C83.0555 13.3532 82.9677 14.0067 82.8577 14.6644C82.7541 15.321 82.6344 15.9281 82.4986 16.4857C82.3692 17.0422 82.2355 17.4912 82.0976 17.8327C82.0087 18.0532 81.9265 18.2232 81.851 18.3427C81.7755 18.4622 81.6712 18.5512 81.538 18.6095C81.4112 18.6667 81.2148 18.7208 80.949 18.7719L79.8761 18.9779C79.5786 19.035 79.3365 19.0388 79.1498 18.9893C78.9682 18.9323 78.7767 18.7722 78.5752 18.509C78.4537 18.3551 78.2914 18.0909 78.0883 17.7165C77.8839 17.3357 77.6697 16.9207 77.4456 16.4715C77.2203 16.0159 77.0169 15.589 76.8355 15.1907C76.654 14.7924 76.5286 14.4981 76.4592 14.308C76.3911 14.1242 76.312 13.8998 76.2217 13.635C76.1378 13.3689 76.0743 13.1579 76.0313 13.0021L75.9838 13.0112C76.0079 13.1707 76.0271 13.3901 76.0413 13.6696C76.0607 13.9415 76.0709 14.1824 76.0718 14.3922C76.0678 14.5768 76.0511 14.8655 76.0215 15.2584C75.9907 15.6449 75.9457 16.0769 75.8864 16.5543C75.8322 17.0241 75.7667 17.4862 75.6899 17.9407C75.6194 18.394 75.5431 18.7827 75.461 19.1069C75.3776 19.4248 75.2527 19.6457 75.0861 19.7696C74.9247 19.8859 74.6478 19.9817 74.2553 20.0571L73.1539 20.2685C72.8438 20.3281 72.6226 20.3213 72.4905 20.2483C72.3646 20.174 72.187 20.0178 71.9575 19.7796ZM68.1569 12.4959L68.1605 12.5148C68.163 12.5275 68.1654 12.5402 68.1678 12.5528L68.1569 12.4959ZM83.1904 9.62907L83.1977 9.66705L83.1941 9.64806C83.1928 9.64173 83.1916 9.6354 83.1904 9.62907Z" fill="white"/>
</svg>
